<svg xmlns="http://www.w3.org/2000/svg" width="128" height="128" viewBox="0 0 120 120"><defs><clipPath id="a"><path d="M0 595.276h841.89V0H0z"/></clipPath></defs><g clip-path="url(#a)" transform="matrix(1.25 0 0 -1.25 -374.02 295.433)"><path d="M309.22 197.919l.06-5.835 16.964-12.934 41.928-.541 17.024 14.076.015 5.398-29.16-1.548z" fill="#fff"/><path d="M338.415 229.146c-3.953-.878-7.863-2.102-11.529-3.947.084-3.237.293-6.338.717-9.489-1.423-.912-2.92-1.695-4.25-2.763-1.35-1.04-2.73-2.034-3.954-3.25a75.757 75.757 0 01-7.696 4.477c-2.872-3.091-5.558-6.428-7.753-10.162a82.581 82.581 0 015.235-7.549h.052v-22.916c.042 0 .085-.002.126-.006l14.049-1.355a1.513 1.513 0 001.364-1.4l.433-6.202 12.255-.875.844 5.724c.11.742.746 1.292 1.497 1.292h14.822c.75 0 1.388-.55 1.497-1.292l.844-5.724 12.256.875.432 6.201c.052.738.628 1.33 1.364 1.401l14.044 1.355c.041.004.083.006.125.006v1.829l.006.002v21.085h.052c1.86 2.376 3.583 4.879 5.235 7.55-2.194 3.733-4.881 7.07-7.754 10.162a75.758 75.758 0 01-7.696-4.478c-1.223 1.216-2.6 2.21-3.953 3.25-1.33 1.068-2.828 1.851-4.25 2.763.424 3.15.633 6.252.718 9.49-3.667 1.844-7.577 3.068-11.532 3.946-1.579-2.653-3.023-5.527-4.28-8.336-1.491.249-2.99.341-4.49.36v.001l-.029-.002-.028.002v-.002c-1.503-.018-3-.11-4.492-.36-1.257 2.81-2.7 5.684-4.28 8.337zm-29.202-58.63c.006-1.358.023-2.845.023-3.141 0-13.342 16.926-19.755 37.953-19.829h.052c21.028.074 37.948 6.487 37.948 19.829 0 .301.017 1.782.024 3.14l-12.628-1.217-.435-6.235a1.513 1.513 0 00-1.401-1.404l-14.966-1.067c-.036-.004-.073-.004-.109-.004-.743 0-1.385.546-1.495 1.293l-.858 5.82h-12.21l-.859-5.82a1.512 1.512 0 00-1.604-1.29l-14.965 1.068a1.513 1.513 0 00-1.401 1.404l-.435 6.235-12.633 1.218z" fill="#8f8f8f"/><g aria-label="RL"><g aria-label="GYM" style="line-height:1.25" font-size="10.97" stroke-width=".206" font-weight="700" font-family="inter" letter-spacing="0" word-spacing="0" fill="#fff"><path d="M332.31 191.304h3.596c-.458 3.31-3.375 5.64-7.159 5.64-4.42 0-7.828-3.188-7.828-8.614 0-5.296 3.187-8.58 7.902-8.58 4.225 0 7.24 2.672 7.24 7.076v2.109h-7.003v-2.664h3.596c-.05-2.076-1.463-3.392-3.817-3.392-2.656 0-4.33 1.986-4.33 5.484 0 3.48 1.74 5.45 4.298 5.45 1.822 0 3.056-.94 3.505-2.509zM337.716 196.714l6.105-10.82v-5.916h3.514v5.917l6.104 10.82h-3.963l-3.817-7.208h-.163l-3.816 7.207zM355.372 196.714v-16.736h3.432v10.934h.139l4.331-10.852h2.337l4.331 10.811h.14v-10.893h3.432v16.736h-4.364l-4.61-11.244h-.196l-4.608 11.244z" style="-inkscape-font-specification:'inter Bold'"/></g></g></g></svg>