<svg xmlns="http://www.w3.org/2000/svg" width="2432.65542" height="881.115553" viewBox="0 0 643.64007 233.12849"><defs><marker orient="auto" refY="0" refX="0" id="e" overflow="visible"><path d="M-1.925576-1.21012L1.352187-.004805l-3.277764 1.205316c.52365-.711618.520633-1.685235 0-2.410633z" fill="#929292" fill-rule="evenodd" stroke="#929292" stroke-width=".1875" stroke-linejoin="round"/></marker><marker orient="auto" refY="0" refX="0" id="d" overflow="visible"><path d="M-1.925576-1.21012L1.352187-.004805l-3.277764 1.205316c.52365-.711618.520633-1.685235 0-2.410633z" fill="#89af75" fill-rule="evenodd" stroke="#89af75" stroke-width=".1875" stroke-linejoin="round"/></marker><marker id="c" refX="0" refY="0" orient="auto" overflow="visible"><path d="M-1.925576-1.21012L1.352187-.004805l-3.277764 1.205316c.52365-.711618.520633-1.685235 0-2.410633z" fill="#a13977" fill-rule="evenodd" stroke="#a13977" stroke-width=".1875" stroke-linejoin="round"/></marker><marker orient="auto" refY="0" refX="0" id="b" overflow="visible"><path d="M-1.925576-1.21012L1.352187-.004805l-3.277764 1.205316c.52365-.711618.520633-1.685235 0-2.410633z" fill="#7587cb" fill-rule="evenodd" stroke="#7587cb" stroke-width=".1875" stroke-linejoin="round"/></marker><linearGradient id="a"><stop offset="0" stop-color="#7587cb"/><stop offset="1" stop-color="#89af75"/></linearGradient></defs><path d="M356.959395 18.981595h119.12218c9.72739 0 17.55847 7.831077 17.55847 17.558468v179.029958c0 9.72739-7.83108 17.55847-17.55847 17.55847h-119.12218c-9.72739 0-17.55847-7.83108-17.55847-17.55847V36.540063c0-9.727391 7.83108-17.558468 17.55847-17.558468z" fill="#e0f8e6" fill-opacity=".9"/><path d="M167.558468 18.981595h119.122187c9.72739 0 17.55847 7.831077 17.55847 17.558468v179.029958c0 9.72739-7.83108 17.55847-17.55847 17.55847H167.558468c-9.727391 0-17.558468-7.83108-17.558468-17.55847V36.540063c0-9.727391 7.831077-17.558468 17.558468-17.558468z" fill="#ccd8ff" fill-opacity=".9"/><g aria-label="Godot" style="line-height:1.25;-inkscape-font-specification:inter" font-weight="400" font-size="11.8896" font-family="inter" letter-spacing="0" word-spacing="0" fill="#547cff" stroke-width=".29724"><path d="M216.597965 2.820403h1.08087C217.357955 1.148428 215.956195 0 214.132225 0c-2.21663 0-3.78306 1.705753-3.78306 4.441712s1.55376 4.441711 3.85061 4.441711c2.06042 0 3.52973-1.372202 3.52973-3.512836v-.928875h-3.29329v.928875h2.27997c-.0296 1.553754-1.05132 2.533295-2.51641 2.533295-1.60442 0-2.83729-1.215982-2.83729-3.46217 0-2.246189 1.23287-3.462171 2.76974-3.462171 1.24976 0 2.09841.705101 2.46574 1.840862zM222.019205 8.900312c1.75642 0 2.93863-1.334203 2.93863-3.34395 0-2.026637-1.18221-3.360839-2.93863-3.360839-1.75641 0-2.93862 1.334202-2.93862 3.360839 0 2.009747 1.18221 3.34395 2.93862 3.34395zm0-.895098c-1.3342 0-1.94219-1.148427-1.94219-2.448852s.60799-2.465741 1.94219-2.465741c1.33421 0 1.9422 1.165316 1.9422 2.465741s-.60799 2.448852-1.9422 2.448852zM228.926655 8.900312c1.24976 0 1.67197-.776878 1.89152-1.131539h.11822v.996429h.96266V.118221h-.99643v3.191952h-.0844c-.21955-.337773-.60799-1.11465-1.87464-1.11465-1.63819 0-2.76973 1.300425-2.76973 3.34395 0 2.060414 1.13154 3.360839 2.75285 3.360839zm.13511-.895098c-1.24976 0-1.89153-1.097762-1.89153-2.48263 0-1.367979.62488-2.431963 1.89153-2.431963 1.21598 0 1.85775.979541 1.85775 2.431963 0 1.469312-.65866 2.48263-1.85775 2.48263zM236.492745 8.900312c1.75641 0 2.93862-1.334203 2.93862-3.34395 0-2.026637-1.18221-3.360839-2.93862-3.360839-1.75642 0-2.93863 1.334202-2.93863 3.360839 0 2.009747 1.18221 3.34395 2.93863 3.34395zm0-.895098c-1.33421 0-1.9422-1.148427-1.9422-2.448852s.60799-2.465741 1.9422-2.465741c1.3342 0 1.94219 1.165316 1.94219 2.465741s-.60799 2.448852-1.94219 2.448852zM243.771735 2.279966h-1.38487V.726212h-.99643v1.553754h-.97954v.844432h.97954v4.053273c0 1.131538.91199 1.671975 1.75642 1.671975.37155 0 .60799-.06755.7431-.118221l-.20266-.895098c-.0845.01689-.21956.05067-.43911.05067-.4391 0-.86132-.135109-.86132-.979541V3.124402h1.38487z" style="-inkscape-font-specification:inter"/></g><path d="M235.396675 126.768231a8.27714 8.27714 0 01-8.27714 8.27714 8.27714 8.27714 0 01-8.27714-8.27714 8.27714 8.27714 0 018.27714-8.27714 8.27714 8.27714 0 018.27714 8.27714z" fill="none" stroke="#7587cb" stroke-width="3.2" stroke-linecap="round" stroke-linejoin="bevel"/><g aria-label="Environment node" style="line-height:1.25;-inkscape-font-specification:inter" font-weight="400" font-size="7.84574" font-family="inter" letter-spacing="0" word-spacing="0" fill="#566cbf" stroke-width="2.5763"><path d="M194.288505 144.683171h3.48823v-.61295h-2.79727v-1.93915h2.57438v-.61295h-2.57438v-1.928h2.75269v-.61295h-3.44365zM199.548715 142.108781c0-.74668.46249-1.17017 1.09216-1.17017.61016 0 .98072.39842.98072 1.06987v2.67469h.65752v-2.71927c0-1.09216-.5823-1.61595-1.44878-1.61595-.64639 0-1.04759.28976-1.24819.72439h-.0557v-.66867h-.63524v4.2795h.65753zM206.826055 140.403671h-.71325l-1.18131 3.41022h-.0446l-1.18132-3.41022h-.71325l1.58252 4.2795h.66867zM207.695325 144.683171h.65753v-4.2795h-.65753zm.33434-4.99275c.25632 0 .46807-.2006.46807-.44578s-.21175-.44578-.46807-.44578-.46807.2006-.46807.44578.21175.44578.46807.44578zM209.556455 144.683171h.65753v-2.70812c0-.57952.45692-1.00301 1.08102-1.00301.17552 0 .35662.0334.4012.0446v-.66867c-.0752-.006-.24797-.0111-.34548-.0111-.51265 0-.95843.28976-1.11445.71325h-.0446v-.64638h-.63524zM214.081115 144.772321c1.15903 0 1.93915-.88041 1.93915-2.20661 0-1.33734-.78012-2.21776-1.93915-2.21776s-1.93914.88042-1.93914 2.21776c0 1.3262.78011 2.20661 1.93914 2.20661zm0-.59066c-.88041 0-1.28162-.75782-1.28162-1.61595s.40121-1.6271 1.28162-1.6271c.88042 0 1.28162.76897 1.28162 1.6271s-.4012 1.61595-1.28162 1.61595zM217.680795 142.108781c0-.74668.46249-1.17017 1.09216-1.17017.61016 0 .98072.39842.98072 1.06987v2.67469h.65752v-2.71927c0-1.09216-.5823-1.61595-1.44878-1.61595-.64639 0-1.04759.28976-1.24819.72439h-.0557v-.66867h-.63524v4.2795h.65753zM221.614795 144.683171h.65753v-2.67469c0-.62688.45692-1.06987.96957-1.06987.49872 0 .84698.32598.84698.81355v2.93101h.66867v-2.78613c0-.55166.34548-.95843.94729-.95843.46807 0 .86927.24796.86927.88042v2.86414h.65753v-2.86414c0-1.0058-.54051-1.47108-1.30391-1.47108-.61295 0-1.06152.2814-1.28162.72439h-.0446c-.21175-.45692-.58509-.72439-1.14788-.72439-.55723 0-.96958.26747-1.14789.72439h-.0557v-.66867h-.63524zM230.229505 144.772321c.86927 0 1.50451-.43463 1.70511-1.08102l-.63523-.17831c-.16717.44578-.55444.66867-1.06988.66867-.77176 0-1.30391-.49871-1.33455-1.41535h3.10653v-.27861c0-1.59367-.94728-2.13975-1.83885-2.13975-1.15903 0-1.928.91385-1.928 2.2289 0 1.31506.75783 2.19547 1.99487 2.19547zm-1.33455-2.57438c.0446-.66589.51543-1.25933 1.26768-1.25933.71325 0 1.17018.53494 1.17018 1.25933zM233.662015 142.108781c0-.74668.4625-1.17017 1.09216-1.17017.61016 0 .98072.39842.98072 1.06987v2.67469h.65753v-2.71927c0-1.09216-.58231-1.61595-1.44879-1.61595-.64638 0-1.04759.28976-1.24819.72439h-.0557v-.66867h-.63524v4.2795h.65753zM239.457155 140.403671h-.91385v-1.02529h-.65753v1.02529h-.64638v.55723h.64638v2.67468c0 .74668.60181 1.10331 1.15903 1.10331.24518 0 .40121-.0446.49036-.078l-.13373-.59066c-.0557.0111-.14488.0334-.28976.0334-.28976 0-.56837-.0892-.56837-.64638v-2.49637h.91385zM243.313135 142.108781c0-.74668.4625-1.17017 1.09216-1.17017.61017 0 .98072.39842.98072 1.06987v2.67469h.65753v-2.71927c0-1.09216-.5823-1.61595-1.44879-1.61595-.64638 0-1.04758.28976-1.24818.72439h-.0557v-.66867h-.63523v4.2795h.65752zM248.985685 144.772321c1.15903 0 1.93915-.88041 1.93915-2.20661 0-1.33734-.78012-2.21776-1.93915-2.21776s-1.93914.88042-1.93914 2.21776c0 1.3262.78011 2.20661 1.93914 2.20661zm0-.59066c-.88041 0-1.28162-.75782-1.28162-1.61595s.40121-1.6271 1.28162-1.6271c.88042 0 1.28162.76897 1.28162 1.6271s-.4012 1.61595-1.28162 1.61595zM253.543795 144.772321c.82469 0 1.1033-.51265 1.24818-.74668h.078v.65753h.63524v-5.706h-.65753v2.10632h-.0557c-.14488-.22289-.4012-.73554-1.23704-.73554-1.08102 0-1.8277.85813-1.8277 2.20661 0 1.35963.74668 2.21776 1.81656 2.21776zm.0891-.59066c-.82469 0-1.24818-.72439-1.24818-1.63824 0-.90271.41234-1.60481 1.24818-1.60481.80241 0 1.2259.64638 1.2259 1.60481 0 .96957-.43464 1.63824-1.2259 1.63824zM258.592245 144.772321c.86927 0 1.50451-.43463 1.70511-1.08102l-.63524-.17831c-.16717.44578-.55444.66867-1.06987.66867-.77176 0-1.30391-.49871-1.33456-1.41535h3.10654v-.27861c0-1.59367-.94729-2.13975-1.83885-2.13975-1.15903 0-1.928.91385-1.928 2.2289 0 1.31506.75783 2.19547 1.99487 2.19547zm-1.33456-2.57438c.0446-.66589.51544-1.25933 1.26769-1.25933.71325 0 1.17017.53494 1.17017 1.25933z" style="-inkscape-font-specification:inter"/></g><path d="M223.062285 59.780881a8.27714 8.27714 0 01-8.27714 8.27714 8.27714 8.27714 0 01-8.27714-8.27714 8.27714 8.27714 0 018.27714-8.277137 8.27714 8.27714 0 018.27714 8.277137zM242.479825 41.130067a8.27714 8.27714 0 01-8.27714 8.27714 8.27714 8.27714 0 01-8.27714-8.27714 8.27714 8.27714 0 018.27714-8.277141 8.27714 8.27714 0 018.27714 8.277141zM203.990005 45.352387a8.27714 8.27714 0 01-8.27714 8.277141 8.27714 8.27714 0 01-8.277137-8.277141 8.27714 8.27714 0 018.277137-8.27714 8.27714 8.27714 0 018.27714 8.27714zM271.180405 49.079423a8.27714 8.27714 0 01-8.27715 8.27714 8.27714 8.27714 0 01-8.27714-8.27714 8.27714 8.27714 0 018.27714-8.277141 8.27714 8.27714 0 018.27715 8.277141zM251.409955 63.053151a8.27714 8.27714 0 01-8.27714 8.27714 8.27714 8.27714 0 01-8.27714-8.27714 8.27714 8.27714 0 018.27714-8.277144 8.27714 8.27714 0 018.27714 8.277144z" fill="none" stroke="#969696" stroke-width="3.2" stroke-linecap="round" stroke-linejoin="bevel"/><g aria-label="Other scene nodes" style="line-height:1.25;-inkscape-font-specification:inter" font-weight="400" font-size="7.93457" font-family="inter" letter-spacing="0" word-spacing="0" fill="#848484" stroke-width=".198364"><path d="M196.997575 79.540661c0-1.82585-1.07071-2.96419-2.54717-2.96419-1.47646 0-2.54718 1.13834-2.54718 2.96419s1.07072 2.96419 2.54718 2.96419 2.54717-1.13834 2.54717-2.96419zm-.67624 0c0 1.499-.82276 2.31049-1.87093 2.31049-1.04818 0-1.87094-.81149-1.87094-2.31049s.82276-2.31049 1.87094-2.31049c1.04817 0 1.87093.81149 1.87093 2.31049zM199.961765 78.098011h-.9242v-1.0369h-.66497v1.0369h-.6537v.56353h.6537v2.70497c0 .75514.60861 1.1158 1.17215 1.1158.24795 0 .40574-.0451.49591-.0789l-.13525-.59735c-.0564.0113-.14652.0338-.29304.0338-.29303 0-.5748-.0902-.5748-.6537v-2.52464h.9242zM201.719975 79.822431c0-.75514.48182-1.18343 1.13834-1.18343.62552 0 1.00309.39448 1.00309 1.08199v2.70497h.66497v-2.75005c0-1.11298-.59171-1.63425-1.47646-1.63425-.68188 0-1.07072.28458-1.27359.73259h-.0564v-2.11889h-.66497v5.7706h.66497zM207.558185 82.516121c.87911 0 1.52154-.43955 1.72442-1.09326l-.64243-.18033c-.16906.45083-.56072.67625-1.08199.67625-.7805 0-1.31867-.50437-1.34967-1.43138h3.14171v-.28177c0-1.61171-.95801-2.16397-1.85966-2.16397-1.17216 0-1.94983.92419-1.94983 2.25414 0 1.32994.7664 2.22032 2.01745 2.22032zm-1.34967-2.60353c.0451-.67342.52127-1.27359 1.28205-1.27359.72132 0 1.18342.541 1.18342 1.27359zM210.364585 82.425961h.66497v-2.73878c0-.58608.4621-1.01437 1.09326-1.01437.17751 0 .36066.0338.40574.0451v-.67624c-.0761-.006-.25077-.0113-.34939-.0113-.51845 0-.96928.29303-1.12707.72132h-.0451v-.6537h-.64243zM218.614715 79.067291c-.20851-.61425-.67625-1.02563-1.53282-1.02563-.91292 0-1.58917.51845-1.58917 1.25104 0 .59735.35503.99746 1.14961 1.18343l.72133.16906c.43674.10143.64243.30994.64243.60861 0 .37194-.39448.67625-1.01436.67625-.54381 0-.88475-.23387-1.0031-.69879l-.63115.15779c.15497.73542.76077 1.12707 1.64552 1.12707 1.00591 0 1.6906-.54944 1.6906-1.29613 0-.60298-.37757-.98337-1.14961-1.17215l-.64243-.15779c-.51282-.1268-.74387-.29867-.74387-.63116 0-.37193.39448-.64243.9242-.64243.58044 0 .81994.32122.93547.61989zM221.454915 82.516121c.95801 0 1.58917-.58607 1.70188-1.35248h-.66497c-.12398.47337-.51845.75514-1.03691.75514-.78895 0-1.29613-.65371-1.29613-1.6568 0-.98055.51846-1.62298 1.29613-1.62298.58608 0 .93547.36067 1.03691.75514h.66497c-.11271-.81149-.80022-1.35248-1.71315-1.35248-1.17215 0-1.94983.92419-1.94983 2.24286 0 1.29613.74387 2.2316 1.9611 2.2316zM225.940645 82.516121c.87911 0 1.52154-.43955 1.72441-1.09326l-.64243-.18033c-.16906.45083-.56071.67625-1.08198.67625-.7805 0-1.31868-.50437-1.34967-1.43138h3.14171v-.28177c0-1.61171-.95801-2.16397-1.85967-2.16397-1.17215 0-1.94983.92419-1.94983 2.25414 0 1.32994.76641 2.22032 2.01746 2.22032zm-1.34967-2.60353c.0451-.67342.52127-1.27359 1.28204-1.27359.72133 0 1.18342.541 1.18342 1.27359zM229.412015 79.822431c0-.75514.46773-1.18343 1.10453-1.18343.61707 0 .99182.40293.99182 1.08199v2.70497h.66497v-2.75005c0-1.10453-.5889-1.63425-1.46519-1.63425-.6537 0-1.05945.29303-1.26232.73259h-.0564v-.67624h-.64243v4.32795h.66497zM235.205145 82.516121c.87911 0 1.52154-.43955 1.72441-1.09326l-.64243-.18033c-.16906.45083-.56071.67625-1.08198.67625-.7805 0-1.31868-.50437-1.34967-1.43138h3.14171v-.28177c0-1.61171-.95801-2.16397-1.85967-2.16397-1.17215 0-1.94983.92419-1.94983 2.25414 0 1.32994.76641 2.22032 2.01746 2.22032zm-1.34967-2.60353c.0451-.67342.52127-1.27359 1.28204-1.27359.72133 0 1.18342.541 1.18342 1.27359zM240.908095 79.822431c0-.75514.46773-1.18343 1.10453-1.18343.61707 0 .99182.40293.99182 1.08199v2.70497h.66497v-2.75005c0-1.10453-.58889-1.63425-1.46519-1.63425-.6537 0-1.05945.29303-1.26232.73259h-.0564v-.67624h-.64243v4.32795h.66497zM246.644865 82.516121c1.17216 0 1.96111-.89038 1.96111-2.2316 0-1.35248-.78895-2.24286-1.96111-2.24286-1.17215 0-1.9611.89038-1.9611 2.24286 0 1.34122.78895 2.2316 1.9611 2.2316zm0-.59734c-.89038 0-1.29613-.76641-1.29613-1.63426 0-.86784.40575-1.64552 1.29613-1.64552.89039 0 1.29613.77768 1.29613 1.64552 0 .86785-.40574 1.63426-1.29613 1.63426zM251.254585 82.516121c.83403 0 1.11579-.51845 1.26231-.75513h.0789v.66497h.64243v-5.7706h-.66497v2.13016h-.0564c-.14652-.22541-.40574-.74386-1.25104-.74386-1.09326 0-1.8484.86784-1.8484 2.23159 0 1.37503.75514 2.24287 1.83713 2.24287zm.0902-.59734c-.83403 0-1.26232-.7326-1.26232-1.6568 0-.91292.41702-1.62298 1.26232-1.62298.81149 0 1.23978.6537 1.23978 1.62298 0 .98055-.43956 1.6568-1.23978 1.6568zM256.360195 82.516121c.87911 0 1.52154-.43955 1.72441-1.09326l-.64243-.18033c-.16906.45083-.56071.67625-1.08198.67625-.7805 0-1.31867-.50437-1.34967-1.43138h3.14171v-.28177c0-1.61171-.95801-2.16397-1.85967-2.16397-1.17215 0-1.94983.92419-1.94983 2.25414 0 1.32994.76641 2.22032 2.01746 2.22032zm-1.34967-2.60353c.0451-.67342.52127-1.27359 1.28204-1.27359.72133 0 1.18343.541 1.18343 1.27359zM262.232225 79.067291c-.20851-.61425-.67624-1.02563-1.53282-1.02563-.91292 0-1.58916.51845-1.58916 1.25104 0 .59735.35502.99746 1.14961 1.18343l.72132.16906c.43674.10143.64243.30994.64243.60861 0 .37194-.39447.67625-1.01436.67625-.54381 0-.88475-.23387-1.00309-.69879l-.63116.15779c.15497.73542.76077 1.12707 1.64552 1.12707 1.00591 0 1.6906-.54944 1.6906-1.29613 0-.60298-.37757-.98337-1.14961-1.17215l-.64243-.15779c-.51281-.1268-.74386-.29867-.74386-.63116 0-.37193.39447-.64243.92419-.64243.58044 0 .81995.32122.93547.61989z" style="-inkscape-font-specification:inter"/></g><path d="M137.72924 154.55653v-22.15352" fill="none" stroke="#7587cb" stroke-width="2.5763" stroke-linecap="round" stroke-linejoin="bevel" marker-end="url(#b)" transform="translate(89.390305 -42.267089)"/><g aria-label="get_observation() get_reward() etc." style="line-height:1.25;-inkscape-font-specification:inter" font-weight="400" font-size="6.33949" font-family="mono" letter-spacing="0" word-spacing="0" fill="#7587cb" stroke-width=".158487"><path d="M235.038275 155.215911q0-.64076-.2105-.97198-.20739-.33431-.6067-.33431-.41789 0-.63767.33431-.21978.33122-.21978.97198 0 .64075.21978.97816.22287.33431.64386.33431.39312 0 .60051-.33741.2105-.3374.2105-.97506zm.56956 1.53844q0 .78005-.36836 1.18246-.36836.40241-1.08341.40241-.23525 0-.49218-.0433-.25692-.0433-.51384-.12691v-.56337q.30335.14239.55099.21049.24764.0681.45503.0681.46122 0 .67171-.25074.2105-.25073.2105-.79553v-.41173q-.1362.29097-.37146.43336-.23525.14239-.57266.14239-.60671 0-.96888-.48598-.36216-.48599-.36216-1.30009 0-.8172.36216-1.30319.36217-.48599.96888-.48599.33431 0 .56647.13311.23216.1331.37765.41169v-.44884h.56956zM239.641215 155.101371v.27859h-2.46708v.0186q0 .56646.29407.87601.29716.30955.83577.30955.2724 0 .56956-.0867.29717-.0867.63457-.26311v.56647q-.32502.1331-.62838.19811-.30026.0681-.58194.0681-.80792 0-1.26295-.48289-.45503-.48599-.45503-1.33724 0-.82958.44575-1.32485.44574-.49528 1.18865-.49528.66243 0 1.04317.44884.38384.44884.38384 1.2258zm-.56957-.16715q-.0124-.50146-.23835-.76148-.22287-.26312-.64385-.26312-.4117 0-.67791.2724t-.31573.75529zM241.916365 152.525961v.98435h1.2939v.44265h-1.2939v1.88204q0 .38383.14549.53551.14549.15168.50765.15168h.64076v.45503h-.69647q-.64076 0-.90388-.25692-.26311-.25693-.26311-.8853v-1.88204h-.92554v-.44265h.92554v-.98435zM247.649145 158.224691v.24763h-3.81669v-.24763zM249.555955 153.909621q-.43337 0-.65624.33741-.22287.3374-.22287.99983 0 .65933.22287.99983.22287.33741.65624.33741.43645 0 .65933-.33741.22287-.3405.22287-.99983 0-.66243-.22287-.99983-.22288-.33741-.65933-.33741zm0-.48289q.72124 0 1.10198.46742.38383.46741.38383 1.35271 0 .88839-.38074 1.35581-.38074.46432-1.10507.46432-.72125 0-1.10199-.46432-.38074-.46742-.38074-1.35581 0-.8853.38074-1.35271.38074-.46742 1.10199-.46742zM254.307475 155.246861q0-.66243-.21049-.99983-.21049-.33741-.62219-.33741-.41479 0-.62838.3405-.21358.33741-.21358.99674 0 .65624.21358.99674.21359.3405.62838.3405.4117 0 .62219-.33741.21049-.3374.21049-.99983zm-1.67464-1.2939q.1362-.25383.37455-.39003.24144-.1362.55718-.1362.62528 0 .98435.48289.35908.4798.35908 1.32486 0 .85744-.36217 1.34652-.35908.48599-.98745.48599-.30955 0-.5479-.13311-.23525-.1362-.37764-.39312v.43646h-.56957v-4.81653h.56957zM258.294415 153.631031v.55718q-.24454-.14239-.49218-.21358-.24763-.0712-.50455-.0712-.38694 0-.57885.12692-.18883.12381-.18883.38074 0 .23216.14239.34669.14239.11453.70886.22287l.22907.0433q.42407.0805.64076.32192.21977.24145.21977.62838 0 .51385-.36526.80482-.36526.28788-1.01531.28788-.25692 0-.53861-.0557-.28169-.0526-.6098-.16097v-.58813q.31883.16406.6098.24763.29097.0805.55099.0805.37765 0 .58504-.15168.2074-.15477.2074-.43027 0-.39622-.75839-.54789l-.0248-.006-.21359-.0433q-.49218-.096-.71814-.32193-.22597-.22906-.22597-.62218 0-.49837.3374-.76768.33741-.2724.96269-.2724.27859 0 .53551.0526.25693.0495.50456.15167zM262.541385 155.101371v.27859h-2.46708v.0186q0 .56646.29407.87601.29716.30955.83577.30955.2724 0 .56956-.0867.29717-.0867.63457-.26311v.56647q-.32502.1331-.62838.19811-.30025.0681-.58194.0681-.80791 0-1.26295-.48289-.45503-.48599-.45503-1.33724 0-.82958.44575-1.32485.44574-.49528 1.18865-.49528.66243 0 1.04317.44884.38384.44884.38384 1.2258zm-.56957-.16715q-.0124-.50146-.23835-.76148-.22287-.26312-.64385-.26312-.4117 0-.67791.2724t-.31573.75529zM266.491175 154.225361q-.18263-.14239-.37145-.2074-.18882-.065-.41479-.065-.53242 0-.81411.33431-.28168.33431-.28168.96578v1.72417h-.57266v-3.46691h.57266v.6779q.14239-.36835.43646-.56337.29716-.19811.70267-.19811.21049 0 .39312.0526.18263.0526.34978.16405zM267.042165 153.510311h.59124l1.00602 2.90973 1.00912-2.90973h.59123l-1.23199 3.46691h-.73362zM272.722325 155.234481h-.18882q-.49837 0-.75219.17644-.25074.17334-.25074.52003 0 .31265.18883.48599.18882.17335.52313.17335.47051 0 .73981-.32503.26931-.32811.2724-.90387v-.12691zm1.10508-.23526v1.978h-.57266v-.51385q-.18263.30955-.46122.45813-.2755.14549-.67171.14549-.52933 0-.84506-.29717-.31574-.30026-.31574-.80172 0-.57885.38693-.87911.39003-.30026 1.14223-.30026h.76457v-.0898q-.003-.41479-.21049-.60051-.20739-.18883-.66243-.18883-.29097 0-.58813.0836-.29717.0836-.57885.24454v-.56956q.31573-.12072.60361-.17954.29097-.0619.56337-.0619.43027 0 .73363.12692.30645.12691.49527.38074.11763.15477.16715.38383.0495.22597.0495.681zM276.266625 152.525961v.98435h1.2939v.44265h-1.2939v1.88204q0 .38383.14549.53551.14548.15168.50765.15168h.64076v.45503h-.69648q-.64076 0-.90387-.25692-.26311-.25693-.26311-.8853v-1.88204h-.92554v-.44265h.92554v-.98435zM278.975145 153.510311h1.45796v3.02426h1.12984v.44265h-2.82925v-.44265h1.12985v-2.58161h-.8884zm.8884-1.34962h.56956v.72124h-.56956zM283.906205 153.909621q-.43336 0-.65624.33741-.22287.3374-.22287.99983 0 .65933.22287.99983.22288.33741.65624.33741.43646 0 .65933-.33741.22287-.3405.22287-.99983 0-.66243-.22287-.99983-.22287-.33741-.65933-.33741zm0-.48289q.72124 0 1.10198.46742.38384.46741.38384 1.35271 0 .88839-.38074 1.35581-.38074.46432-1.10508.46432-.72124 0-1.10198-.46432-.38074-.46742-.38074-1.35581 0-.8853.38074-1.35271.38074-.46742 1.10198-.46742zM289.069425 154.828971v2.14825h-.57266v-2.14825q0-.46741-.16406-.68719-.16406-.21977-.51384-.21977-.39932 0-.616.28478-.21359.28168-.21359.81101v1.95942h-.56956v-3.46691h.56956v.52004q.15168-.29717.4117-.44884.26002-.15478.61599-.15478.52933 0 .78935.34979.26311.34669.26311 1.05245zM292.372275 152.166881q-.4117.70577-.616 1.40843-.2012.69958-.2012 1.41153 0 .70886.2012 1.41153.2043.70267.616 1.41462h-.49528q-.46741-.73672-.69647-1.43319-.22907-.69958-.22907-1.39296 0-.69028.22907-1.38986.22906-.69957.69647-1.4301zM294.526705 152.166881h.49528q.46741.73053.69647 1.4301.22907.69958.22907 1.38986 0 .69648-.22907 1.39605-.22906.69957-.69647 1.4301h-.49528q.4117-.71814.6129-1.42081.2043-.70267.2043-1.40534 0-.70576-.2043-1.40843-.2012-.70267-.6129-1.41153zM235.038275 163.398311q0-.64076-.2105-.97197-.20739-.33431-.6067-.33431-.41789 0-.63767.33431-.21978.33121-.21978.97197t.21978.97816q.22287.33431.64386.33431.39312 0 .60051-.3374.2105-.33741.2105-.97507zm.56956 1.53844q0 .78005-.36836 1.18246-.36836.40241-1.08341.40241-.23525 0-.49218-.0433-.25692-.0433-.51384-.12692v-.56337q.30335.14239.55099.21049.24764.0681.45503.0681.46122 0 .67171-.25073.2105-.25073.2105-.79553v-.41173q-.1362.29097-.37146.43337-.23525.14239-.57266.14239-.60671 0-.96888-.48599-.36216-.48599-.36216-1.30009 0-.8172.36216-1.30319.36217-.48598.96888-.48598.33431 0 .56647.1331.23216.13311.37765.4117v-.44884h.56956zM239.641215 163.283781v.27859h-2.46708v.0186q0 .56647.29407.87601.29716.30955.83577.30955.2724 0 .56956-.0867.29717-.0867.63457-.26312v.56647q-.32502.13311-.62838.19811-.30026.0681-.58194.0681-.80792 0-1.26295-.48289-.45503-.48599-.45503-1.33724 0-.82958.44575-1.32485.44574-.49527 1.18865-.49527.66243 0 1.04317.44884.38384.44884.38384 1.2258zm-.56957-.16716q-.0124-.50146-.23835-.76148-.22287-.26311-.64385-.26311-.4117 0-.67791.2724t-.31573.75529zM241.916365 160.708361v.98435h1.2939v.44265h-1.2939v1.88204q0 .38384.14549.53551.14549.15168.50765.15168h.64076v.45503h-.69647q-.64076 0-.90388-.25692-.26311-.25692-.26311-.8853v-1.88204h-.92554v-.44265h.92554v-.98435zM247.649145 166.407091v.24764h-3.81669v-.24764zM251.224395 162.407761q-.18263-.14239-.37145-.20739-.18882-.065-.41479-.065-.53242 0-.8141.33431-.28169.33431-.28169.96578v1.72417h-.57266v-3.46691h.57266v.67791q.14239-.36836.43646-.56337.29716-.19811.70267-.19811.21049 0 .39312.0526.18263.0526.34978.16406zM254.907995 163.283781v.27859h-2.46708v.0186q0 .56647.29407.87601.29716.30955.83577.30955.2724 0 .56956-.0867.29717-.0867.63457-.26312v.56647q-.32502.13311-.62838.19811-.30026.0681-.58194.0681-.80792 0-1.26295-.48289-.45503-.48599-.45503-1.33724 0-.82958.44575-1.32485.44574-.49527 1.18865-.49527.66243 0 1.04317.44884.38384.44884.38384 1.2258zm-.56957-.16716q-.0124-.50146-.23835-.76148-.22287-.26311-.64385-.26311-.4117 0-.67791.2724t-.31573.75529zM255.282535 161.692711h.56338l.60361 2.80139.49527-1.78917h.48599l.50146 1.78917.60362-2.80139h.56337l-.81101 3.46691h-.5448l-.55409-1.90061-.55099 1.90061h-.5448zM261.272245 163.416881h-.18882q-.49837 0-.7522.17644-.25073.17335-.25073.52004 0 .31264.18882.48599.18883.17334.52313.17334.47051 0 .73982-.32502.2693-.32812.2724-.90387v-.12692zm1.10508-.23525v1.97799h-.57266v-.51384q-.18263.30954-.46122.45812-.2755.14549-.67172.14549-.52932 0-.84506-.29716-.31573-.30026-.31573-.80173 0-.57885.38693-.8791.39003-.30026 1.14222-.30026h.76458v-.0898q-.003-.41479-.21049-.60052-.2074-.18882-.66243-.18882-.29097 0-.58814.0836-.29716.0836-.57885.24455v-.56957q.31574-.12072.60362-.17953.29097-.0619.56337-.0619.43027 0 .73362.12691.30645.12691.49528.38074.11762.15477.16715.38384.0495.22597.0495.681zM266.491175 162.407761q-.18263-.14239-.37145-.20739-.18882-.065-.41479-.065-.53242 0-.81411.33431-.28168.33431-.28168.96578v1.72417h-.57266v-3.46691h.57266v.67791q.14239-.36836.43646-.56337.29716-.19811.70267-.19811.21049 0 .39312.0526.18263.0526.34978.16406zM269.388525 162.135361v-1.79226h.56956v4.81652h-.56956v-.43646q-.14239.25693-.38074.39313-.23526.1331-.5448.1331-.62838 0-.99055-.48599-.35907-.48908-.35907-1.34652 0-.84506.36217-1.32485.36217-.48289.98745-.48289.31264 0 .55099.1362.23835.1331.37455.39002zm-1.67464 1.2939q0 .66243.21049.99984.21049.3374.62219.3374.41169 0 .62528-.3405.21668-.3405.21668-.99674 0-.65933-.21668-.99673-.21359-.3405-.62528-.3405-.4117 0-.62219.3374-.21049.33741-.21049.99983zM273.288795 160.349291q-.41169.70576-.61599 1.40843-.20121.69957-.20121 1.41153 0 .70885.20121 1.41152.2043.70267.61599 1.41463h-.49527q-.46741-.73672-.69648-1.4332-.22906-.69957-.22906-1.39295 0-.69029.22906-1.38986.22907-.69958.69648-1.4301zM275.443235 160.349291h.49527q.46742.73052.69648 1.4301.22906.69957.22906 1.38986 0 .69647-.22906 1.39605-.22906.69957-.69648 1.4301h-.49527q.4117-.71815.6129-1.42082.2043-.70267.2043-1.40533 0-.70577-.2043-1.40844-.2012-.70266-.6129-1.41152zM235.824515 171.466181v.27859h-2.46708v.0186q0 .56646.29407.87601.29717.30954.83577.30954.2724 0 .56957-.0867.29716-.0867.63457-.26311v.56647q-.32503.1331-.62838.1981-.30026.0681-.58195.0681-.80791 0-1.26294-.48289-.45503-.48598-.45503-1.33723 0-.82958.44574-1.32486.44575-.49527 1.18866-.49527.66242 0 1.04316.44884.38384.44884.38384 1.2258zm-.56956-.16715q-.0124-.50147-.23835-.76148-.22288-.26312-.64386-.26312-.41169 0-.6779.2724-.26621.2724-.31574.75529zM238.099675 168.890761v.98436h1.2939v.44265h-1.2939v1.88203q0 .38384.14549.53552.14548.15167.50765.15167h.64076v.45504h-.69648q-.64076 0-.90387-.25693-.26311-.25692-.26311-.8853v-1.88203h-.92555v-.44265h.92555v-.98436zM243.300035 173.165591q-.22906.1331-.4736.1981-.24145.0681-.49527.0681-.80482 0-1.25985-.48289-.45194-.48289-.45194-1.33723 0-.85435.45194-1.33724.45503-.48289 1.25985-.48289.25073 0 .48908.065t.47979.2012v.59742q-.22597-.2012-.45503-.29097-.22597-.0898-.51384-.0898-.53552 0-.8234.34669-.28787.34669-.28787.99055 0 .64076.28787.99054.29098.34669.8234.34669.29716 0 .53241-.0898.23526-.0929.43646-.28479zM245.346135 172.397911h.78005v.94412h-.78005z" style="-inkscape-font-specification:mono"/></g><path d="M235.396675 189.450321a8.27714 8.27714 0 01-8.27714 8.27714 8.27714 8.27714 0 01-8.27714-8.27714 8.27714 8.27714 0 018.27714-8.27714 8.27714 8.27714 0 018.27714 8.27714z" fill="none" stroke="#a13977" stroke-width="3.2" stroke-linecap="round" stroke-linejoin="bevel"/><g aria-label="GymGodot node (GymGodot.tscn)" style="line-height:1.25;-inkscape-font-specification:inter" font-weight="400" font-size="7.84574" font-family="inter" letter-spacing="0" word-spacing="0" fill="#a13977" stroke-width=".196143"><path d="M200.094805 205.029771h.71325c-.21174-1.10331-1.13674-1.86114-2.34035-1.86114-1.46272 0-2.49637 1.1256-2.49637 2.93101 0 1.80541 1.0253 2.93101 2.54095 2.93101 1.35963 0 2.3292-.90549 2.3292-2.31806v-.61295h-2.17318v.61295h1.50451c-.0195 1.02529-.69374 1.67168-1.66053 1.67168-1.05873 0-1.87228-.80241-1.87228-2.28463 0-1.48222.81355-2.28463 1.8277-2.28463.8247 0 1.38471.46529 1.6271 1.21476zM202.357135 210.557451c.59345 0 1.01137-.31484 1.25933-.98072l1.81656-4.90359h-.71325l-1.18132 3.41022h-.0446l-1.18131-3.41022h-.71325l1.58252 4.30179-.12259.33433c-.23961.65196-.53494.71325-1.01415.59066l-.16717.57952c.0669.0334.25632.078.47921.078zM206.302295 208.952641h.65753v-2.67469c0-.62688.45692-1.06987.96957-1.06987.49872 0 .84698.32598.84698.81355v2.93101h.66867v-2.78613c0-.55166.34548-.95843.94729-.95843.46807 0 .86927.24796.86927.88042v2.86414h.65753v-2.86414c0-1.0058-.54051-1.47108-1.30391-1.47108-.61295 0-1.06152.2814-1.28162.72439h-.0446c-.21175-.45692-.58509-.72439-1.14788-.72439-.55723 0-.96958.26747-1.14789.72439h-.0557v-.66867h-.63524zM217.112475 205.029771h.71325c-.21175-1.10331-1.13674-1.86114-2.34035-1.86114-1.46272 0-2.49637 1.1256-2.49637 2.93101 0 1.80541 1.0253 2.93101 2.54095 2.93101 1.35963 0 2.3292-.90549 2.3292-2.31806v-.61295h-2.17318v.61295h1.50451c-.0195 1.02529-.69374 1.67168-1.66053 1.67168-1.05873 0-1.87228-.80241-1.87228-2.28463 0-1.48222.81355-2.28463 1.8277-2.28463.8247 0 1.38471.46529 1.6271 1.21476zM220.689865 209.041791c1.15903 0 1.93914-.88041 1.93914-2.20661 0-1.33734-.78011-2.21776-1.93914-2.21776s-1.93915.88042-1.93915 2.21776c0 1.3262.78012 2.20661 1.93915 2.20661zm0-.59066c-.88042 0-1.28162-.75782-1.28162-1.61595s.4012-1.6271 1.28162-1.6271c.88041 0 1.28162.76897 1.28162 1.6271s-.40121 1.61595-1.28162 1.61595zM225.247965 209.041791c.82469 0 1.1033-.51265 1.24818-.74668h.078v.65753h.63524v-5.706h-.65753v2.10632h-.0557c-.14488-.22289-.4012-.73554-1.23704-.73554-1.08102 0-1.8277.85813-1.8277 2.20661 0 1.35963.74668 2.21776 1.81656 2.21776zm.0891-.59066c-.82469 0-1.24818-.72439-1.24818-1.63824 0-.90271.41234-1.60481 1.24818-1.60481.80241 0 1.2259.64638 1.2259 1.60481 0 .96957-.43464 1.63824-1.2259 1.63824zM230.240695 209.041791c1.15903 0 1.93914-.88041 1.93914-2.20661 0-1.33734-.78011-2.21776-1.93914-2.21776s-1.93915.88042-1.93915 2.21776c0 1.3262.78012 2.20661 1.93915 2.20661zm0-.59066c-.88042 0-1.28162-.75782-1.28162-1.61595s.4012-1.6271 1.28162-1.6271 1.28162.76897 1.28162 1.6271-.4012 1.61595-1.28162 1.61595zM235.043975 204.673141h-.91385v-1.02529h-.65753v1.02529h-.64638v.55723h.64638v2.67468c0 .74668.6018 1.10331 1.15903 1.10331.24518 0 .4012-.0446.49036-.078l-.13374-.59066c-.0557.0111-.14488.0334-.28975.0334-.28976 0-.56837-.0891-.56837-.64638v-2.49637h.91385zM238.899955 206.378251c0-.74668.4625-1.17017 1.09216-1.17017.61017 0 .98072.39842.98072 1.06987v2.67469h.65753v-2.71927c0-1.09216-.5823-1.61595-1.44879-1.61595-.64638 0-1.04758.28976-1.24819.72439h-.0557v-.66867h-.63524v4.2795h.65753zM244.572505 209.041791c1.15903 0 1.93915-.88041 1.93915-2.20661 0-1.33734-.78012-2.21776-1.93915-2.21776s-1.93914.88042-1.93914 2.21776c0 1.3262.78011 2.20661 1.93914 2.20661zm0-.59066c-.88041 0-1.28162-.75782-1.28162-1.61595s.40121-1.6271 1.28162-1.6271c.88042 0 1.28162.76897 1.28162 1.6271s-.4012 1.61595-1.28162 1.61595zM249.130605 209.041791c.8247 0 1.10331-.51265 1.24819-.74668h.078v.65753h.63524v-5.706h-.65753v2.10632h-.0557c-.14488-.22289-.4012-.73554-1.23704-.73554-1.08102 0-1.8277.85813-1.8277 2.20661 0 1.35963.74668 2.21776 1.81655 2.21776zm.0892-.59066c-.82469 0-1.24819-.72439-1.24819-1.63824 0-.90271.41235-1.60481 1.24819-1.60481.80241 0 1.2259.64638 1.2259 1.60481 0 .96957-.43464 1.63824-1.2259 1.63824zM254.179065 209.041791c.86927 0 1.50451-.43463 1.70511-1.08102l-.63524-.17831c-.16717.44578-.55444.66867-1.06987.66867-.77176 0-1.30391-.49871-1.33456-1.41535h3.10653v-.27861c0-1.59367-.94728-2.13975-1.83884-2.13975-1.15903 0-1.928.91385-1.928 2.2289 0 1.31506.75782 2.19547 1.99487 2.19547zm-1.33456-2.57438c.0446-.66589.51543-1.25933 1.26769-1.25933.71325 0 1.17017.53494 1.17017 1.25933zM196.339105 215.906821c0 1.4042.37891 2.57438 1.05873 3.56624h.57951c-.53493-.73554-.95842-2.24005-.95842-3.56624 0-1.3262.42349-2.83071.95842-3.56625h-.57951c-.67982.99186-1.05873 2.16204-1.05873 3.56625zM202.936655 214.836941h.71325c-.21175-1.10331-1.13674-1.86113-2.34035-1.86113-1.46272 0-2.49637 1.12559-2.49637 2.93101 0 1.80541 1.02529 2.931 2.54095 2.931 1.35963 0 2.3292-.90549 2.3292-2.31806v-.61294h-2.17318v.61294h1.50451c-.0195 1.0253-.69375 1.67168-1.66053 1.67168-1.05873 0-1.87228-.8024-1.87228-2.28462 0-1.48223.81355-2.28463 1.8277-2.28463.82469 0 1.3847.46528 1.6271 1.21475zM205.198985 220.364621c.59344 0 1.01136-.31483 1.25933-.98072l1.81655-4.90358h-.71324l-1.18132 3.41022h-.0446l-1.18132-3.41022h-.71325l1.58252 4.30178-.12259.33434c-.2396.65195-.53493.71324-1.01415.59066l-.16717.57951c.0669.0334.25633.078.47922.078zM209.144145 218.759811h.65752v-2.67468c0-.62688.45693-1.06988.96958-1.06988.49871 0 .84698.32598.84698.81355v2.93101h.66867v-2.78613c0-.55165.34548-.95843.94728-.95843.46807 0 .86928.24797.86928.88042v2.86414h.65752v-2.86414c0-1.00579-.54051-1.47108-1.30391-1.47108-.61294 0-1.06151.2814-1.28162.7244h-.0446c-.21175-.45693-.58509-.7244-1.14789-.7244-.55722 0-.96957.26747-1.14788.7244h-.0557v-.66867h-.63523zM219.954325 214.836941h.71325c-.21175-1.10331-1.13675-1.86113-2.34035-1.86113-1.46272 0-2.49638 1.12559-2.49638 2.93101 0 1.80541 1.0253 2.931 2.54095 2.931 1.35964 0 2.32921-.90549 2.32921-2.31806v-.61294h-2.17318v.61294h1.50451c-.0195 1.0253-.69375 1.67168-1.66054 1.67168-1.05872 0-1.87227-.8024-1.87227-2.28462 0-1.48223.81355-2.28463 1.8277-2.28463.82469 0 1.3847.46528 1.6271 1.21475zM223.531705 218.848971c1.15903 0 1.93915-.88042 1.93915-2.20662 0-1.33734-.78012-2.21776-1.93915-2.21776s-1.93915.88042-1.93915 2.21776c0 1.3262.78012 2.20662 1.93915 2.20662zm0-.59066c-.88042 0-1.28162-.75783-1.28162-1.61596 0-.85812.4012-1.6271 1.28162-1.6271s1.28162.76898 1.28162 1.6271c0 .85813-.4012 1.61596-1.28162 1.61596zM228.089805 218.848971c.8247 0 1.10331-.51265 1.24819-.74669h.078v.65753h.63524v-5.70599h-.65753v2.10631h-.0557c-.14488-.22289-.40121-.73554-1.23704-.73554-1.08102 0-1.8277.85813-1.8277 2.20662 0 1.35963.74668 2.21776 1.81655 2.21776zm.0892-.59066c-.8247 0-1.24819-.7244-1.24819-1.63825 0-.9027.41235-1.60481 1.24819-1.60481.8024 0 1.22589.64639 1.22589 1.60481 0 .96958-.43463 1.63825-1.22589 1.63825zM233.082535 218.848971c1.15903 0 1.93915-.88042 1.93915-2.20662 0-1.33734-.78012-2.21776-1.93915-2.21776s-1.93914.88042-1.93914 2.21776c0 1.3262.78011 2.20662 1.93914 2.20662zm0-.59066c-.88042 0-1.28162-.75783-1.28162-1.61596 0-.85812.4012-1.6271 1.28162-1.6271s1.28162.76898 1.28162 1.6271c0 .85813-.4012 1.61596-1.28162 1.61596zM237.885815 214.480321h-.91385v-1.0253h-.65752v1.0253h-.64639v.55722h.64639v2.67469c0 .74668.6018 1.1033 1.15902 1.1033.24518 0 .40121-.0446.49036-.078l-.13373-.59066c-.0557.0111-.14488.0334-.28976.0334-.28976 0-.56837-.0892-.56837-.64639v-2.49637h.91385zM239.356885 218.804391c.27583 0 .50151-.22568.50151-.5015 0-.27583-.22568-.50151-.50151-.50151-.27582 0-.5015.22568-.5015.50151 0 .27582.22568.5015.5015.5015zM242.900845 214.480321h-.91385v-1.0253h-.65753v1.0253h-.64638v.55722h.64638v2.67469c0 .74668.60181 1.1033 1.15903 1.1033.24518 0 .40121-.0446.49036-.078l-.13373-.59066c-.0557.0111-.14488.0334-.28976.0334-.28976 0-.56837-.0892-.56837-.64639v-2.49637h.91385zM246.845985 215.438751c-.20617-.60738-.66867-1.01416-1.51565-1.01416-.90271 0-1.57138.51265-1.57138 1.23705 0 .59066.35105.98629 1.13674 1.17017l.71325.16717c.43185.1003.63524.30647.63524.6018 0 .36777-.39006.66867-1.00301.66867-.53772 0-.87484-.23125-.99186-.69096l-.62409.15603c.15324.72718.75225 1.11445 1.6271 1.11445.99465 0 1.67167-.5433 1.67167-1.28162 0-.59623-.37334-.97236-1.13674-1.15903l-.63523-.15602c-.50708-.12538-.73554-.29533-.73554-.6241 0-.36777.39006-.63524.91385-.63524.57394 0 .81076.31762.92499.61295zM249.654395 218.848971c.94729 0 1.57138-.57952 1.68282-1.33734h-.65752c-.12259.46807-.51265.74668-1.0253.74668-.78011 0-1.28162-.64638-1.28162-1.63825 0-.96957.51265-1.60481 1.28162-1.60481.57952 0 .925.35663 1.0253.74669h.65752c-.11144-.80241-.79126-1.33735-1.69396-1.33735-1.15903 0-1.928.91385-1.928 2.21776 0 1.28162.73553 2.20662 1.93914 2.20662zM252.953165 216.185431c0-.74668.4625-1.17018 1.09216-1.17018.61016 0 .98072.39842.98072 1.06988v2.67468h.65752v-2.71926c0-1.09216-.5823-1.61596-1.44878-1.61596-.64638 0-1.04759.28976-1.24819.7244h-.0557v-.66867h-.63524v4.27949h.65753zM258.291375 216.352601c0-1.40421-.37891-2.57439-1.05873-3.56625h-.57951c.53493.73554.95843 2.24005.95843 3.56625 0 1.32619-.4235 2.8307-.95843 3.56624h.57951c.67982-.99186 1.05873-2.16204 1.05873-3.56624z" style="-inkscape-font-specification:inter"/></g><path d="M137.72924 216.82653V194.673" fill="none" stroke="#a13977" stroke-width="2.5763" stroke-linecap="round" stroke-linejoin="bevel" marker-end="url(#c)" transform="translate(89.390305 -42.267089)"/><g aria-label="Python" style="line-height:1.25;-inkscape-font-specification:inter" font-weight="400" font-size="11.8896" font-family="inter" letter-spacing="0" word-spacing="0" fill="#449142" stroke-width=".29724"><path d="M397.647455 8.765202h1.04709V5.607027h1.89153c2.01397 0 2.92173-1.224426 2.92173-2.752847 0-1.528422-.90776-2.735959-2.93862-2.735959h-2.92173zm1.04709-4.08705V1.047096h1.84086c1.40598 0 1.9422.768433 1.9422 1.807084 0 1.038651-.53622 1.823972-1.92531 1.823972zM405.703335 11.197166c.89932 0 1.53264-.477104 1.90841-1.4862l2.75285-7.431h-1.08087l-1.7902 5.167923h-.0676l-1.7902-5.167923h-1.08087l2.39818 6.519014-.18577.506659c-.36311.987985-.81066 1.080872-1.53687.895097l-.25333.87821c.10134.05067.38844.11822.72622.11822zM414.502305 2.279966h-1.38487V.726212h-.99643v1.553754h-.97954v.844432h.97954v4.053273c0 1.131538.91199 1.671975 1.75642 1.671975.37155 0 .60799-.06755.7431-.118221l-.20266-.895098c-.0844.01689-.21955.05067-.43911.05067-.4391 0-.86132-.135109-.86132-.979541V3.124402h1.38487zM417.136915 4.863927c0-1.131538.72199-1.773306 1.70575-1.773306.93732 0 1.50309.591102 1.50309 1.621309v4.053272h.99643V4.644375c0-1.667753-.88666-2.448852-2.21241-2.448852-1.02177 0-1.60442.426438-1.90842 1.097761h-.0844V.118221h-.99643v8.646981h.99643zM425.800775 8.900312c1.75641 0 2.93862-1.334203 2.93862-3.34395 0-2.026637-1.18221-3.360839-2.93862-3.360839-1.75642 0-2.93863 1.334202-2.93863 3.360839 0 2.009747 1.18221 3.34395 2.93863 3.34395zm0-.895098c-1.33421 0-1.9422-1.148427-1.9422-2.448852s.60799-2.465741 1.9422-2.465741c1.3342 0 1.94219 1.165316 1.94219 2.465741s-.60799 2.448852-1.94219 2.448852zM431.255795 4.863927c0-1.131538.70087-1.773306 1.65508-1.773306.92465 0 1.4862.603768 1.4862 1.621309v4.053272h.99643V4.644375c0-1.655086-.88243-2.448852-2.19552-2.448852-.97954 0-1.58753.439105-1.89153 1.097761h-.0844V2.279966h-.96265v6.485236h.99643z" style="-inkscape-font-specification:inter"/></g><path d="M376.265335 175.775501h80.5103c3.11427 0 5.62143 2.50716 5.62143 5.62143v19.07751c0 3.11427-2.50716 5.62143-5.62143 5.62143h-80.5103c-3.11427 0-5.62143-2.50716-5.62143-5.62143v-19.07751c0-3.11427 2.50716-5.62143 5.62143-5.62143z" fill="#79aa50" fill-opacity=".444444"/><g aria-label="gym-server (Gym environment)" style="line-height:1.25;-inkscape-font-specification:inter" font-weight="400" font-size="7.84574" font-family="inter" letter-spacing="0" word-spacing="0" fill="#3e642b" stroke-width=".196143"><path d="M396.989685 189.312981c1.0253 0 1.84999-.46806 1.84999-1.57137v-4.40209h-.63524v.67982h-.0669c-.14488-.22289-.41235-.73554-1.24819-.73554-1.08102 0-1.8277.85813-1.8277 2.17318 0 1.33734.78011 2.09517 1.81655 2.09517.83584 0 1.10331-.49036 1.24819-.72439h.0557v.86927c0 .71325-.5015 1.03644-1.19246 1.03644-.77733 0-1.05037-.40956-1.2259-.64638l-.52379.36777c.26747.44856.79405.85812 1.74969.85812zm-.0223-2.35149c-.82469 0-1.24818-.62409-1.24818-1.51565 0-.86927.41234-1.57138 1.24818-1.57138.80241 0 1.2259.64638 1.2259 1.57138 0 .94728-.43464 1.51565-1.2259 1.51565zM400.466755 189.223831c.59345 0 1.01137-.31483 1.25933-.98072l1.81656-4.90359h-.71325l-1.18132 3.41023h-.0446l-1.18132-3.41023h-.71325l1.58252 4.30179-.12259.33433c-.23961.65196-.53494.71325-1.01415.59066l-.16717.57952c.0669.0334.25632.078.47921.078zM404.411915 187.619021h.65753v-2.67469c0-.62687.45692-1.06987.96957-1.06987.49872 0 .84698.32598.84698.81355v2.93101h.66868v-2.78613c0-.55165.34548-.95843.94728-.95843.46807 0 .86927.24797.86927.88042v2.86414h.65753v-2.86414c0-1.0058-.54051-1.47108-1.30391-1.47108-.61295 0-1.06152.2814-1.28162.72439h-.0446c-.21174-.45692-.58509-.72439-1.14788-.72439-.55723 0-.96958.26747-1.14789.72439h-.0557v-.66867h-.63524zM413.684155 184.866321h-2.49637v.61295h2.49637zM417.874485 184.297951c-.20618-.60737-.66868-1.01415-1.51566-1.01415-.9027 0-1.57138.51265-1.57138 1.23704 0 .59066.35106.98629 1.13674 1.17018l.71325.16716c.43185.10031.63524.30648.63524.60181 0 .36777-.39006.66867-1.00301.66867-.53772 0-.87484-.23125-.99186-.69096l-.62409.15602c.15324.72718.75225 1.11445 1.6271 1.11445.99465 0 1.67168-.54329 1.67168-1.28161 0-.59624-.37334-.97236-1.13674-1.15903l-.63524-.15603c-.50708-.12537-.73554-.29533-.73554-.62409 0-.36777.39006-.63524.91385-.63524.57394 0 .81076.31762.925.61295zM420.738615 187.708171c.86927 0 1.50451-.43463 1.70511-1.08101l-.63524-.17832c-.16717.44578-.55444.66868-1.06987.66868-.77176 0-1.30391-.49872-1.33456-1.41536h3.10654v-.27861c0-1.59367-.94729-2.13975-1.83885-2.13975-1.15903 0-1.928.91385-1.928 2.2289 0 1.31506.75783 2.19547 1.99487 2.19547zm-1.33456-2.57438c.0446-.66588.51544-1.25933 1.26769-1.25933.71325 0 1.17017.53494 1.17017 1.25933zM423.513595 187.619021h.65752v-2.70812c0-.57951.45693-1.00301 1.08102-1.00301.17553 0 .35663.0334.40121.0446v-.66867c-.0752-.006-.24797-.0111-.34548-.0111-.51265 0-.95843.28975-1.11446.71325h-.0446v-.64639h-.63524zM430.066555 183.339521h-.71325l-1.18132 3.41023h-.0446l-1.18132-3.41023h-.71325l1.58253 4.2795h.66867zM432.574055 187.708171c.86927 0 1.50451-.43463 1.70511-1.08101l-.63524-.17832c-.16717.44578-.55444.66868-1.06987.66868-.77176 0-1.30391-.49872-1.33456-1.41536h3.10654v-.27861c0-1.59367-.94729-2.13975-1.83885-2.13975-1.15903 0-1.928.91385-1.928 2.2289 0 1.31506.75783 2.19547 1.99487 2.19547zm-1.33456-2.57438c.0446-.66588.51544-1.25933 1.26769-1.25933.71325 0 1.17018.53494 1.17018 1.25933zM435.349035 187.619021h.65753v-2.70812c0-.57951.45692-1.00301 1.08101-1.00301.17553 0 .35663.0334.40121.0446v-.66867c-.0752-.006-.24797-.0111-.34548-.0111-.51265 0-.95843.28975-1.11445.71325h-.0446v-.64639h-.63524zM382.256725 194.573201c0 1.40421.37891 2.57438 1.05873 3.56624h.57951c-.53494-.73554-.95843-2.24005-.95843-3.56624 0-1.3262.42349-2.83071.95843-3.56625h-.57951c-.67982.99186-1.05873 2.16204-1.05873 3.56625zM388.854265 193.503321h.71325c-.21174-1.1033-1.13674-1.86113-2.34034-1.86113-1.46272 0-2.49638 1.1256-2.49638 2.93101 0 1.80541 1.0253 2.931 2.54095 2.931 1.35963 0 2.32921-.90549 2.32921-2.31805v-.61295h-2.17318v.61295h1.50451c-.0195 1.02529-.69375 1.67167-1.66054 1.67167-1.05873 0-1.87228-.8024-1.87228-2.28462 0-1.48222.81355-2.28463 1.82771-2.28463.82469 0 1.3847.46528 1.62709 1.21475zM391.116605 199.031001c.59344 0 1.01136-.31483 1.25933-.98071l1.81655-4.90359h-.71325l-1.18132 3.41022h-.0446l-1.18132-3.41022h-.71325l1.58252 4.30178-.12259.33434c-.23961.65195-.53494.71325-1.01415.59066l-.16717.57951c.0669.0334.25633.078.47922.078zM395.061755 197.426191h.65753v-2.67468c0-.62688.45693-1.06987.96957-1.06987.49872 0 .84699.32597.84699.81355v2.931h.66867v-2.78613c0-.55165.34548-.95842.94728-.95842.46807 0 .86927.24796.86927.88041v2.86414h.65753v-2.86414c0-1.00579-.54051-1.47107-1.30391-1.47107-.61295 0-1.06151.2814-1.28162.72439h-.0446c-.21174-.45693-.58508-.72439-1.14788-.72439-.55723 0-.96957.26746-1.14789.72439h-.0557v-.66867h-.63524zM405.883065 197.515351c.86928 0 1.50451-.43464 1.70512-1.08102l-.63524-.17831c-.16717.44578-.55444.66867-1.06988.66867-.77175 0-1.3039-.49872-1.33455-1.41535h3.10653v-.27862c0-1.59366-.94728-2.13974-1.83884-2.13974-1.15903 0-1.928.91385-1.928 2.2289 0 1.31505.75782 2.19547 1.99486 2.19547zm-1.33455-2.57438c.0446-.66589.51543-1.25933 1.26769-1.25933.71325 0 1.17017.53493 1.17017 1.25933zM409.315575 194.851811c0-.74668.4625-1.17017 1.09216-1.17017.61017 0 .98072.39841.98072 1.06987v2.67468h.65753v-2.71926c0-1.09216-.5823-1.61595-1.44879-1.61595-.64638 0-1.04758.28975-1.24818.72439h-.0557v-.66867h-.63523v4.27949h.65752zM416.592925 193.146701h-.71325l-1.18132 3.41022h-.0446l-1.18132-3.41022h-.71324l1.58252 4.27949h.66867zM417.462195 197.426191h.65753v-4.27949h-.65753zm.33433-4.99274c.25633 0 .46807-.2006.46807-.44578s-.21174-.44578-.46807-.44578c-.25632 0-.46807.2006-.46807.44578s.21175.44578.46807.44578zM419.323325 197.426191h.65753v-2.70811c0-.57952.45692-1.00301 1.08101-1.00301.17553 0 .35663.0334.40121.0446v-.66867c-.0752-.006-.24797-.0111-.34548-.0111-.51265 0-.95843.28976-1.11446.71325h-.0446v-.64638h-.63524zM423.847985 197.515351c1.15903 0 1.93915-.88042 1.93915-2.20661 0-1.33735-.78012-2.21776-1.93915-2.21776s-1.93914.88041-1.93914 2.21776c0 1.32619.78011 2.20661 1.93914 2.20661zm0-.59066c-.88042 0-1.28162-.75783-1.28162-1.61595 0-.85813.4012-1.6271 1.28162-1.6271s1.28162.76897 1.28162 1.6271c0 .85812-.4012 1.61595-1.28162 1.61595zM427.447655 194.851811c0-.74668.4625-1.17017 1.09216-1.17017.61016 0 .98072.39841.98072 1.06987v2.67468h.65753v-2.71926c0-1.09216-.5823-1.61595-1.44879-1.61595-.64638 0-1.04759.28975-1.24819.72439h-.0557v-.66867h-.63524v4.27949h.65753zM431.381665 197.426191h.65752v-2.67468c0-.62688.45693-1.06987.96958-1.06987.49871 0 .84698.32597.84698.81355v2.931h.66867v-2.78613c0-.55165.34548-.95842.94728-.95842.46807 0 .86928.24796.86928.88041v2.86414h.65752v-2.86414c0-1.00579-.54051-1.47107-1.30391-1.47107-.61294 0-1.06151.2814-1.28161.72439h-.0446c-.21175-.45693-.58509-.72439-1.14789-.72439-.55722 0-.96957.26746-1.14788.72439h-.0557v-.66867h-.63523zM439.996375 197.515351c.86927 0 1.50451-.43464 1.70511-1.08102l-.63524-.17831c-.16717.44578-.55444.66867-1.06987.66867-.77176 0-1.30391-.49872-1.33456-1.41535h3.10653v-.27862c0-1.59366-.94728-2.13974-1.83884-2.13974-1.15903 0-1.928.91385-1.928 2.2289 0 1.31505.75783 2.19547 1.99487 2.19547zm-1.33456-2.57438c.0446-.66589.51543-1.25933 1.26769-1.25933.71325 0 1.17017.53493 1.17017 1.25933zM443.428875 194.851811c0-.74668.4625-1.17017 1.09217-1.17017.61016 0 .98071.39841.98071 1.06987v2.67468h.65753v-2.71926c0-1.09216-.5823-1.61595-1.44879-1.61595-.64638 0-1.04758.28975-1.24818.72439h-.0557v-.66867h-.63523v4.27949h.65752zM449.224015 193.146701h-.91385v-1.0253h-.65753v1.0253h-.64638v.55722h.64638v2.67469c0 .74668.60181 1.10331 1.15903 1.10331.24518 0 .40121-.0446.49036-.078l-.13373-.59066c-.0557.0111-.14488.0334-.28976.0334-.28976 0-.56837-.0892-.56837-.64638v-2.49638h.91385zM451.620085 195.018981c0-1.40421-.37891-2.57439-1.05873-3.56625h-.57951c.53494.73554.95843 2.24005.95843 3.56625s-.42349 2.8307-.95843 3.56624h.57951c.67982-.99186 1.05873-2.16203 1.05873-3.56624z" style="-inkscape-font-specification:inter"/></g><path d="M327.1178 170.12839v39.58698" fill="none" stroke="#89af75" stroke-width="2.5763" stroke-linecap="round" stroke-linejoin="bevel" marker-end="url(#d)" transform="translate(89.390305 -42.267089)"/><g aria-label="Gym environment API" style="line-height:1.25;-inkscape-font-specification:inter" font-weight="400" font-size="6.03966" font-family="inter" letter-spacing="0" word-spacing="0" fill="#3e642b" stroke-width=".150991"><path d="M428.121325 143.824151h.54906c-.16301-.84933-.87507-1.4327-1.80161-1.4327-1.126 0-1.92171.86648-1.92171 2.25629 0 1.38981.78928 2.25629 1.95603 2.25629 1.04664 0 1.79302-.69705 1.79302-1.78444v-.47185h-1.67291v.47185h1.15817c-.015.78927-.53405 1.28686-1.27828 1.28686-.81501 0-1.44128-.6177-1.44128-1.75871 0-1.14102.62627-1.75871 1.40696-1.75871.63485 0 1.06595.35818 1.25255.93512zM429.862865 148.079361c.45684 0 .77855-.24235.96943-.75495l1.39839-3.77479h-.54906l-.90938 2.62519h-.0343l-.90939-2.62519h-.54906l1.21823 3.31152-.0944.25737c-.18445.50187-.41179.54906-.78069.45469l-.12869.44611c.0515.0257.19732.0601.3689.0601zM432.899855 146.843981h.50616v-2.05898c0-.48257.35174-.82359.74638-.82359.38391 0 .65201.25094.65201.62628v2.25629h.51474v-2.14477c0-.42466.26595-.7378.72922-.7378.36032 0 .66917.19089.66917.67775v2.20482h.50617v-2.20482c0-.77426-.41609-1.13244-1.00375-1.13244-.47185 0-.81716.21662-.9866.55764h-.0343c-.16301-.35174-.4504-.55764-.88365-.55764-.42895 0-.74638.2059-.88364.55764h-.0429v-.51474h-.489zM441.230115 146.912611c.66916 0 1.15817-.33458 1.31259-.83217l-.489-.13726c-.12869.34316-.42681.51474-.82359.51474-.5941 0-1.00375-.38391-1.02735-1.08954h2.39142v-.21448c0-1.2268-.72922-1.64718-1.41555-1.64718-.89222 0-1.48418.70349-1.48418 1.71582s.58338 1.69007 1.53566 1.69007zm-1.02735-1.98176c.0343-.5126.39678-.96944.97587-.96944.54906 0 .9008.4118.9008.96944zM443.872455 144.862221c0-.5748.35604-.90081.84075-.90081.46971 0 .75496.30671.75496.82359v2.05898h.50616v-2.09329c0-.84075-.44825-1.24397-1.11527-1.24397-.49759 0-.80644.22306-.96086.55764h-.0429v-.51474h-.48901v3.29436h.50616zM449.474565 143.549621h-.54906l-.90938 2.62519h-.0343l-.90938-2.62519h-.54906l1.21822 3.29436h.51475zM450.143735 146.843981h.50617v-3.29436h-.50617zm.25737-3.84342c.19732 0 .36032-.15442.36032-.34316 0-.18874-.163-.34317-.36032-.34317-.19732 0-.36032.15443-.36032.34317 0 .18874.163.34316.36032.34316zM451.576435 146.843981h.50616v-2.08471c0-.44611.35175-.77212.83217-.77212.13512 0 .27453.0257.30885.0343v-.51475c-.0579-.004-.19088-.009-.26595-.009-.39464 0-.7378.22306-.85791.54906h-.0343v-.49758h-.48901zM455.059525 146.912611c.89222 0 1.49276-.67774 1.49276-1.69865 0-1.02949-.60054-1.70724-1.49276-1.70724-.89222 0-1.49276.67775-1.49276 1.70724 0 1.02091.60054 1.69865 1.49276 1.69865zm0-.45469c-.67775 0-.98659-.58338-.98659-1.24396 0-.66059.30884-1.25255.98659-1.25255s.98659.59196.98659 1.25255c0 .66058-.30884 1.24396-.98659 1.24396zM457.830555 144.862221c0-.5748.35603-.90081.84075-.90081.4697 0 .75496.30671.75496.82359v2.05898h.50616v-2.09329c0-.84075-.44825-1.24397-1.11528-1.24397-.49758 0-.80643.22306-.96085.55764h-.0429v-.51474h-.489v3.29436h.50616zM460.858955 146.843981h.50617v-2.05898c0-.48257.35174-.82359.74638-.82359.38391 0 .652.25094.652.62628v2.25629h.51475v-2.14477c0-.42466.26595-.7378.72922-.7378.36032 0 .66916.19089.66916.67775v2.20482h.50617v-2.20482c0-.77426-.41609-1.13244-1.00375-1.13244-.47185 0-.81716.21662-.98659.55764h-.0343c-.163-.35174-.4504-.55764-.88364-.55764-.42896 0-.74638.2059-.88365.55764h-.0429v-.51474h-.48901zM467.490575 146.912611c.66916 0 1.15817-.33458 1.31259-.83217l-.489-.13726c-.12869.34316-.42681.51474-.82359.51474-.5941 0-1.00375-.38391-1.02735-1.08954h2.39142v-.21448c0-1.2268-.72922-1.64718-1.41555-1.64718-.89222 0-1.48418.70349-1.48418 1.71582s.58338 1.69007 1.53566 1.69007zm-1.02735-1.98176c.0343-.5126.39679-.96944.97587-.96944.54906 0 .9008.4118.9008.96944zM470.132925 144.862221c0-.5748.35603-.90081.84074-.90081.46971 0 .75496.30671.75496.82359v2.05898h.50617v-2.09329c0-.84075-.44826-1.24397-1.11528-1.24397-.49759 0-.80643.22306-.96086.55764h-.0429v-.51474h-.48901v3.29436h.50617zM474.594025 143.549621h-.70348v-.78928h-.50617v.78928h-.49758v.42895h.49758v2.05898c0 .57479.46327.84932.89222.84932.18874 0 .30885-.0343.37748-.0601l-.10295-.45469c-.0429.009-.11152.0257-.22305.0257-.22306 0-.43753-.0686-.43753-.49759v-1.92171h.70348zM477.304995 146.843981l.44182-1.24397h1.77587l.44182 1.24397h.55764l-1.61286-4.39248h-.54906l-1.61287 4.39248zm.60911-1.71581l.70349-1.98177h.0343l.70349 1.98177zM481.208465 146.843981h.53191v-1.60429h.96085c1.02305 0 1.48418-.62198 1.48418-1.39838 0-.77641-.46113-1.38981-1.49276-1.38981h-1.48418zm.53191-2.07613v-1.8445h.93511c.71421 0 .9866.39034.9866.91796 0 .52761-.27239.92654-.97802.92654zM485.575215 142.451501h-.53191v4.39248h.53191z" style="-inkscape-font-specification:inter"/></g><g aria-label="step(action), reset(), etc." style="line-height:1.25;-inkscape-font-specification:inter" font-weight="400" font-size="4.205" font-family="mono" letter-spacing="0" word-spacing="0" fill="#3e642b" stroke-width=".105125"><path d="M424.360315 151.598721v.36958q-.1622-.0944-.32646-.14167-.16426-.0472-.33467-.0472-.25666 0-.38396.0842-.12524.0821-.12524.25255 0 .15399.0944.22996.0944.076.47018.14783l.15194.0288q.28129.0534.42502.21353.14578.16016.14578.41681 0 .34083-.24228.53384-.24228.19095-.67346.19095-.17042 0-.35726-.037-.18684-.0349-.40448-.10677v-.39011q.21148.10882.40448.16426.193.0534.36547.0534.2505 0 .38806-.10061.13757-.10266.13757-.2854 0-.26281-.50304-.36342l-.0164-.004-.14167-.0288q-.32646-.0636-.47635-.21353-.14988-.15194-.14988-.4127 0-.33057.2238-.5092.2238-.18068.63855-.18068.18479 0 .35521.0349.17042.0328.33467.10061zM426.154835 150.865721v.65292h.85825v.29361h-.85825v1.24836q0 .2546.0965.35521.0965.10061.33673.10061h.42502v.30182h-.46198q-.42501 0-.59954-.17042-.17452-.17041-.17452-.58722v-1.24836h-.61392v-.29361h.61392v-.65292zM429.708965 152.574001v.18479h-1.63642v.0123q0 .37574.19506.58106.19711.20532.55437.20532.18068 0 .37779-.0575t.42091-.17452v.37574q-.21559.0883-.4168.1314-.19917.0452-.38601.0452-.53589 0-.83771-.32031-.30183-.32235-.30183-.88699 0-.55026.29567-.87878.29566-.32851.78843-.32851.43939 0 .69194.29771.2546.29772.2546.81308zm-.37779-.11087q-.008-.33263-.1581-.5051-.14783-.17452-.42707-.17452-.27308 0-.44966.18068-.17657.18069-.20943.50099zM430.727365 153.528751v1.16418h-.37985v-3.17429h.37985v.29361q.0944-.17041.25049-.2587.1581-.0903.36342-.0903.41681 0 .65293.32235.23817.32236.23817.89315 0 .56053-.23817.88084-.23818.31825-.65293.31825-.20943 0-.36753-.0883-.15604-.0903-.24638-.26076zm1.10874-.85825q0-.43939-.13962-.66319-.13757-.2238-.41065-.2238-.27513 0-.4168.22585-.14167.2238-.14167.66114 0 .43528.14167.66114.14167.22585.4168.22585.27308 0 .41065-.2238.13962-.2238.13962-.66319zM434.306135 150.627541q-.27308.46814-.4086.93422-.13346.46403-.13346.93627 0 .47019.13346.93627.13552.46608.4086.93832h-.32852q-.31004-.48866-.46198-.95064-.15193-.46403-.15193-.92395 0-.45787.15193-.9219.15194-.46403.46198-.94859zM436.462015 152.662291h-.12525q-.33057 0-.49893.11703-.16631.11498-.16631.34494 0 .20738.12525.32236.12524.11498.34699.11498.31209 0 .49072-.21559.17863-.21764.18068-.59954v-.0842zm.733-.15605v1.31201h-.37985v-.34083q-.12114.20532-.30593.30387-.18273.0965-.44555.0965-.3511 0-.56053-.19711-.20942-.19917-.20942-.53179 0-.38395.25665-.58311.2587-.19917.75764-.19917h.50714v-.0595q-.002-.27513-.13962-.39832-.13756-.12525-.43938-.12525-.19301 0-.39012.0554-.19711.0554-.38395.1622v-.37779q.20943-.0801.40038-.11909.193-.0411.37369-.0411.28539 0 .48661.0842.20327.0842.32851.25254.078.10267.11088.2546.0328.14989.0328.45171zM439.730745 153.701221q-.15194.0883-.31414.1314-.16016.0452-.32852.0452-.53384 0-.83566-.32031-.29977-.3203-.29977-.88699 0-.56669.29977-.88699.30182-.3203.83566-.3203.16631 0 .32441.0431.1581.0431.31825.13346v.39628q-.14989-.13346-.30182-.19301-.14989-.0595-.34084-.0595-.35521 0-.54616.22996-.19095.22996-.19095.65703 0 .42502.19095.65703.19301.22996.54616.22996.19711 0 .35315-.0595.15605-.0616.28951-.1889zM441.344575 150.865721v.65292h.85825v.29361h-.85825v1.24836q0 .2546.0965.35521.0965.10061.33673.10061h.42502v.30182h-.46198q-.42501 0-.59954-.17042-.17452-.17041-.17452-.58722v-1.24836h-.61391v-.29361h.61391v-.65292zM443.141145 151.518641h.96707v2.006h.74943v.29361h-1.87665v-.29361h.74943v-1.71239h-.58928zm.58928-.8952h.37779v.4784h-.37779zM446.411935 151.783511q-.28745 0-.43529.2238-.14783.2238-.14783.66319 0 .43734.14783.66319.14784.2238.43529.2238.2895 0 .43733-.2238.14784-.22585.14784-.66319 0-.43939-.14784-.66319-.14783-.2238-.43733-.2238zm0-.3203q.4784 0 .73094.31003.2546.31004.2546.89726 0 .58928-.25254.89931-.25255.30799-.733.30799-.4784 0-.73095-.30799-.25255-.31003-.25255-.89931 0-.58722.25255-.89726.25255-.31003.73095-.31003zM449.836705 152.393321v1.42493h-.37984v-1.42493q0-.31004-.10882-.45582-.10883-.14578-.34084-.14578-.26487 0-.40859.1889-.14167.18684-.14167.53794v1.29969h-.3778v-2.29961h.3778v.34494q.1006-.1971.27308-.29771.17247-.10266.40859-.10266.3511 0 .52357.23201.17452.22996.17452.6981zM450.924915 150.627541h.32852q.31003.48456.46197.94859.15194.46403.15194.9219 0 .46198-.15194.926-.15194.46403-.46197.94859h-.32852q.27308-.47635.40654-.94243.13551-.46608.13551-.93216 0-.46813-.13551-.93422-.13346-.46608-.40654-.93627zM453.772735 153.196131h.51741v.42501l-.40448.78639h-.3162l.20327-.78639zM460.176735 151.992941q-.12114-.0944-.24639-.13757-.12524-.0431-.27513-.0431-.35315 0-.54.22175-.18684.22175-.18684.64061v1.14364h-.37984v-2.29961h.37984v.44966q.0944-.24433.28951-.37369.19711-.1314.46608-.1314.13962 0 .26076.0349t.23201.10882zM462.620075 152.574001v.18479h-1.63642v.0123q0 .37574.19505.58106.19711.20532.55437.20532.18069 0 .3778-.0575.19711-.0575.42091-.17452v.37574q-.21559.0883-.41681.1314-.19916.0452-.386.0452-.53589 0-.83772-.32031-.30182-.32235-.30182-.88699 0-.55026.29566-.87878.29567-.32851.78844-.32851.43939 0 .69194.29771.2546.29772.2546.81308zm-.3778-.11087q-.008-.33263-.15809-.5051-.14784-.17452-.42708-.17452-.27307 0-.44965.18068-.17658.18069-.20943.50099zM464.866295 151.598721v.36958q-.1622-.0944-.32646-.14167-.16426-.0472-.33468-.0472-.25665 0-.38395.0842-.12524.0821-.12524.25255 0 .15399.0944.22996.0944.076.47019.14783l.15194.0288q.28129.0534.42502.21353.14578.16016.14578.41681 0 .34083-.24228.53384-.24228.19095-.67346.19095-.17042 0-.35726-.037-.18685-.0349-.40449-.10677v-.39011q.21148.10882.40449.16426.193.0534.36547.0534.25049 0 .38806-.10061.13757-.10266.13757-.2854 0-.26281-.50304-.36342l-.0164-.004-.14167-.0288q-.32646-.0636-.47635-.21353-.14988-.15194-.14988-.4127 0-.33057.2238-.5092.2238-.18068.63855-.18068.18479 0 .35521.0349.17041.0328.33467.10061zM467.683315 152.574001v.18479h-1.63641v.0123q0 .37574.19505.58106.19711.20532.55437.20532.18069 0 .37779-.0575.19711-.0575.42092-.17452v.37574q-.21559.0883-.41681.1314-.19916.0452-.386.0452-.5359 0-.83772-.32031-.30182-.32235-.30182-.88699 0-.55026.29566-.87878.29566-.32851.78844-.32851.43939 0 .69193.29771.2546.29772.2546.81308zm-.37779-.11087q-.008-.33263-.1581-.5051-.14783-.17452-.42707-.17452-.27308 0-.44965.18068-.17658.18069-.20943.50099zM469.192435 150.865721v.65292h.85825v.29361h-.85825v1.24836q0 .2546.0965.35521.0965.10061.33673.10061h.42502v.30182h-.46198q-.42501 0-.59954-.17042-.17452-.17041-.17452-.58722v-1.24836h-.61391v-.29361h.61391v-.65292zM472.280485 150.627541q-.27308.46814-.40859.93422-.13346.46403-.13346.93627 0 .47019.13346.93627.13551.46608.40859.93832h-.32852q-.31003-.48866-.46197-.95064-.15194-.46403-.15194-.92395 0-.45787.15194-.9219.15194-.46403.46197-.94859zM473.709525 150.627541h.32852q.31004.48456.46197.94859.15194.46403.15194.9219 0 .46198-.15194.926-.15193.46403-.46197.94859h-.32852q.27308-.47635.40654-.94243.13551-.46608.13551-.93216 0-.46813-.13551-.93422-.13346-.46608-.40654-.93627zM476.557345 153.196131h.51742v.42501l-.40449.78639h-.3162l.20327-.78639zM482.873065 152.574001v.18479h-1.63642v.0123q0 .37574.19505.58106.19711.20532.55437.20532.18069 0 .3778-.0575.19711-.0575.42091-.17452v.37574q-.21559.0883-.41681.1314-.19916.0452-.386.0452-.53589 0-.83772-.32031-.30182-.32235-.30182-.88699 0-.55026.29566-.87878.29567-.32851.78844-.32851.43939 0 .69194.29771.2546.29772.2546.81308zm-.3778-.11087q-.008-.33263-.15809-.5051-.14784-.17452-.42707-.17452-.27308 0-.44966.18068-.17658.18069-.20943.50099zM484.382175 150.865721v.65292h.85825v.29361h-.85825v1.24836q0 .2546.0965.35521.0965.10061.33673.10061h.42502v.30182h-.46198q-.42501 0-.59954-.17042-.17452-.17041-.17452-.58722v-1.24836h-.61391v-.29361h.61391v-.65292zM487.831595 153.701221q-.15194.0883-.31415.1314-.16015.0452-.32851.0452-.53384 0-.83566-.32031-.29977-.3203-.29977-.88699 0-.56669.29977-.88699.30182-.3203.83566-.3203.16631 0 .32441.0431.1581.0431.31825.13346v.39628q-.14989-.13346-.30183-.19301-.14988-.0595-.34083-.0595-.35521 0-.54616.22996-.19095.22996-.19095.65703 0 .42502.19095.65703.193.22996.54616.22996.19711 0 .35315-.0595.15605-.0616.28951-.1889zM489.188775 153.192021h.51741v.62623h-.51741z" style="-inkscape-font-specification:mono"/></g><path d="M352.940685 92.791581h127.15924c3.11428 0 5.62143 2.50716 5.62143 5.62143v19.07751c0 3.11427-2.50715 5.62143-5.62143 5.62143h-127.15924c-3.11427 0-5.62142-2.50716-5.62142-5.62143v-19.07751c0-3.11427 2.50715-5.62143 5.62142-5.62143z" fill="#79aa50" fill-opacity=".444444"/><g aria-label="Training script (using PyTorch,Tensorflow, etc.)" style="line-height:1.25;-inkscape-font-specification:inter;text-align:center" font-weight="400" font-size="7.84574" font-family="inter" letter-spacing="0" word-spacing="0" text-anchor="middle" fill="#3e642b" stroke-width=".196143"><path d="M389.119375 99.300721h1.79427v5.09305h.69096v-5.09305h1.79427v-.61294h-4.2795zM393.933785 104.393771h.65753v-2.70812c0-.57951.45692-1.00301 1.08101-1.00301.17553 0 .35663.0334.40121.0446v-.66867c-.0752-.006-.24797-.0111-.34548-.0111-.51265 0-.95843.28975-1.11446.71325h-.0446v-.64639h-.63524zM398.112965 104.494071c.74669 0 1.13675-.4012 1.27048-.67982h.0334v.57952h.65753v-2.81956c0-1.35964-1.03644-1.51566-1.58252-1.51566-.64638 0-1.38192.22289-1.71626 1.00301l.6241.22289c.14487-.31205.48757-.64638 1.11445-.64638.60459 0 .9027.3204.9027.86927v.0223c0 .31762-.32319.28975-1.1033.39006-.79405.10308-1.66054.27861-1.66054 1.25933 0 .83583.64638 1.31505 1.45993 1.31505zm.10031-.59066c-.5238 0-.90271-.23404-.90271-.69096 0-.5015.45692-.65753.96957-.72439.27862-.0334 1.0253-.11145 1.13674-.24518v.6018c0 .53494-.42349 1.05873-1.2036 1.05873zM401.278005 104.393771h.65752v-4.2795h-.65752zm.33433-4.99275c.25633 0 .46807-.2006.46807-.44578s-.21174-.44578-.46807-.44578c-.25632 0-.46807.2006-.46807.44578s.21175.44578.46807.44578zM403.796655 101.819381c0-.74668.4625-1.17017 1.09216-1.17017.61017 0 .98072.39842.98072 1.06987v2.67469h.65753v-2.71926c0-1.09217-.5823-1.61596-1.44879-1.61596-.64638 0-1.04758.28976-1.24819.72439h-.0557v-.66867h-.63524v4.2795h.65753zM407.730665 104.393771h.65752v-4.2795h-.65752zm.33433-4.99275c.25633 0 .46807-.2006.46807-.44578s-.21174-.44578-.46807-.44578c-.25632 0-.46807.2006-.46807.44578s.21175.44578.46807.44578zM410.249315 101.819381c0-.74668.4625-1.17017 1.09216-1.17017.61016 0 .98072.39842.98072 1.06987v2.67469h.65752v-2.71926c0-1.09217-.5823-1.61596-1.44878-1.61596-.64638 0-1.04759.28976-1.24819.72439h-.0557v-.66867h-.63524v4.2795h.65753zM415.910715 106.087731c1.0253 0 1.84999-.46806 1.84999-1.57137v-4.40209h-.63523v.67982h-.0669c-.14488-.22289-.41235-.73554-1.24819-.73554-1.08102 0-1.8277.85813-1.8277 2.17318 0 1.33734.78012 2.09517 1.81656 2.09517.83584 0 1.10331-.49036 1.24818-.72439h.0557v.86927c0 .71325-.50151 1.03644-1.19247 1.03644-.77733 0-1.05037-.40956-1.22589-.64638l-.5238.36777c.26747.44856.79405.85812 1.74969.85812zm-.0223-2.35149c-.82469 0-1.24818-.62409-1.24818-1.51565 0-.86927.41235-1.57138 1.24818-1.57138.80241 0 1.2259.64638 1.2259 1.57138 0 .94728-.43463 1.51565-1.2259 1.51565zM424.202215 101.072701c-.20618-.60737-.66868-1.01415-1.51566-1.01415-.9027 0-1.57138.51265-1.57138 1.23704 0 .59066.35106.98629 1.13674 1.17018l.71325.16716c.43185.10031.63524.30648.63524.60181 0 .36777-.39006.66867-1.00301.66867-.53772 0-.87484-.23125-.99186-.69096l-.62409.15602c.15324.72718.75225 1.11445 1.6271 1.11445.99465 0 1.67168-.54329 1.67168-1.28162 0-.59623-.37334-.97235-1.13674-1.15902l-.63524-.15603c-.50708-.12537-.73554-.29533-.73554-.62409 0-.36777.39006-.63524.91385-.63524.57394 0 .81076.31762.925.61295zM427.010615 104.482921c.94729 0 1.57138-.57951 1.68282-1.33734h-.65752c-.12259.46807-.51265.74668-1.0253.74668-.78011 0-1.28162-.64638-1.28162-1.63824 0-.96957.51265-1.60481 1.28162-1.60481.57952 0 .925.35663 1.0253.74668h.65752c-.11144-.8024-.79126-1.33734-1.69396-1.33734-1.15903 0-1.928.91385-1.928 2.21776 0 1.28162.73554 2.20661 1.93914 2.20661zM429.651855 104.393771h.65753v-2.70812c0-.57951.45692-1.00301 1.08102-1.00301.17552 0 .35662.0334.4012.0446v-.66867c-.0752-.006-.24797-.0111-.34548-.0111-.51265 0-.95843.28975-1.11445.71325h-.0446v-.64639h-.63524zM432.571715 104.393771h.65753v-4.2795h-.65753zm.33433-4.99275c.25633 0 .46807-.2006.46807-.44578s-.21174-.44578-.46807-.44578c-.25632 0-.46807.2006-.46807.44578s.21175.44578.46807.44578zM434.432835 105.998581h.65753v-2.26234h.0557c.14488.23404.4235.74668 1.24819.74668 1.06987 0 1.81656-.85812 1.81656-2.21775 0-1.34849-.74669-2.20662-1.8277-2.20662-.83584 0-1.09217.51265-1.23705.73554h-.078v-.67982h-.63524zm.64639-3.74456c0-.95843.42349-1.60481 1.22589-1.60481.83584 0 1.24819.70211 1.24819 1.60481 0 .91385-.42349 1.63824-1.24819 1.63824-.79126 0-1.22589-.66867-1.22589-1.63824zM441.074955 100.114271h-.91385v-1.02529h-.65752v1.02529h-.64639v.55723h.64639v2.67468c0 .74669.6018 1.10331 1.15903 1.10331.24517 0 .4012-.0446.49035-.078l-.13373-.59066c-.0557.0111-.14488.0334-.28976.0334-.28976 0-.56837-.0892-.56837-.64638v-2.49637h.91385zM356.649895 111.793731c0 1.40421.37892 2.57438 1.05873 3.56624h.57952c-.53494-.73554-.95843-2.24005-.95843-3.56624 0-1.3262.42349-2.83071.95843-3.56625h-.57952c-.67981.99186-1.05873 2.16204-1.05873 3.56625zM361.954685 112.451251c0 .80241-.61295 1.17018-1.10331 1.17018-.54608 0-.93614-.4012-.93614-1.0253v-2.67468h-.65753v2.71926c0 1.09216.57952 1.61596 1.38192 1.61596.64639 0 1.06988-.34548 1.27048-.78012h.0446v.72439h.65752v-4.27949h-.65752zM366.847115 110.879881c-.20617-.60738-.66867-1.01415-1.51565-1.01415-.90271 0-1.57138.51264-1.57138 1.23704 0 .59066.35105.98629 1.13674 1.17017l.71325.16717c.43185.1003.63524.30647.63524.6018 0 .36777-.39006.66867-1.00301.66867-.53772 0-.87484-.23124-.99186-.69096l-.62409.15603c.15323.72718.75225 1.11445 1.6271 1.11445.99464 0 1.67167-.5433 1.67167-1.28162 0-.59623-.37334-.97236-1.13674-1.15903l-.63523-.15602c-.50708-.12538-.73554-.29533-.73554-.6241 0-.36777.39006-.63523.91385-.63523.57394 0 .81076.31762.92499.61294zM367.916985 114.200941h.65752v-4.27949h-.65752zm.33433-4.99274c.25633 0 .46807-.2006.46807-.44578s-.21174-.44578-.46807-.44578c-.25632 0-.46807.2006-.46807.44578s.21175.44578.46807.44578zM370.435635 111.626561c0-.74668.4625-1.17017 1.09216-1.17017.61017 0 .98072.39841.98072 1.06987v2.67468h.65753v-2.71926c0-1.09216-.5823-1.61595-1.44879-1.61595-.64638 0-1.04758.28975-1.24819.72439h-.0557v-.66867h-.63524v4.27949h.65753zM376.097045 115.894911c1.02529 0 1.84999-.46807 1.84999-1.57138v-4.40208h-.63524v.67981h-.0669c-.14488-.22289-.41235-.73553-1.24818-.73553-1.08102 0-1.82771.85812-1.82771 2.17318 0 1.33734.78012 2.09517 1.81656 2.09517.83584 0 1.10331-.49036 1.24819-.7244h.0557v.86927c0 .71325-.5015 1.03644-1.19246 1.03644-.77733 0-1.05037-.40956-1.2259-.64638l-.52379.36777c.26746.44857.79404.85813 1.74969.85813zm-.0223-2.35149c-.8247 0-1.24819-.6241-1.24819-1.51566 0-.86927.41235-1.57137 1.24819-1.57137.8024 0 1.22589.64638 1.22589 1.57137 0 .94729-.43463 1.51566-1.22589 1.51566zM381.446375 114.200941h.69096v-2.08402h1.24819c1.32898 0 1.928-.80798 1.928-1.81656 0-1.00858-.59902-1.80541-1.93915-1.80541h-1.928zm.69096-2.69697v-2.39607h1.21476c.92778 0 1.28161.50707 1.28161 1.19246s-.35383 1.20361-1.27047 1.20361zM386.762315 115.805751c.59344 0 1.01136-.31483 1.25933-.98071l1.81655-4.90359h-.71325l-1.18131 3.41022h-.0446l-1.18132-3.41022h-.71325l1.58252 4.30178-.12259.33434c-.23961.65195-.53494.71325-1.01415.59066l-.16717.57951c.0669.0334.25633.078.47922.078zM390.217105 109.107901h1.79426v5.09304h.69096v-5.09304h1.79427v-.61295h-4.27949zM396.591755 114.290101c1.15903 0 1.93914-.88042 1.93914-2.20662 0-1.33734-.78011-2.21775-1.93914-2.21775s-1.93915.88041-1.93915 2.21775c0 1.3262.78012 2.20662 1.93915 2.20662zm0-.59066c-.88042 0-1.28162-.75783-1.28162-1.61596 0-.85812.4012-1.62709 1.28162-1.62709.88041 0 1.28162.76897 1.28162 1.62709 0 .85813-.40121 1.61596-1.28162 1.61596zM399.533895 114.200941h.65753v-2.70811c0-.57952.45692-1.00301 1.08102-1.00301.17552 0 .35662.0334.4012.0446v-.66867c-.0752-.006-.24797-.0112-.34548-.0112-.51265 0-.95843.28976-1.11445.71325h-.0446v-.64638h-.63524zM404.058555 114.290101c.94729 0 1.57138-.57952 1.68283-1.33734h-.65753c-.12259.46807-.51265.74668-1.0253.74668-.78011 0-1.28161-.64638-1.28161-1.63824 0-.96958.51264-1.60481 1.28161-1.60481.57952 0 .925.35662 1.0253.74668h.65753c-.11145-.80241-.79126-1.33734-1.69397-1.33734-1.15903 0-1.928.91385-1.928 2.21775 0 1.28162.73554 2.20662 1.93914 2.20662zM407.357325 111.626561c0-.74668.47642-1.17017 1.12559-1.17017.61852 0 .99186.39005.99186 1.06987v2.67468h.65753v-2.71926c0-1.10052-.58509-1.61595-1.45993-1.61595-.67424 0-1.05873.28139-1.25933.72439h-.0557v-2.09517h-.65753v5.70599h.65753zM412.316625 113.420831h-.71325l-.0334.31204c-.0808.75504-.23961 1.5073-.31205 1.86114h.5015c.13374-.37892.41792-1.23704.51265-1.87228zM413.041005 109.107901h1.79427v5.09304h.69096v-5.09304h1.79427v-.61295h-4.2795zM419.471375 114.290101c.86927 0 1.50451-.43464 1.70511-1.08102l-.63524-.17831c-.16716.44578-.55443.66867-1.06987.66867-.77176 0-1.30391-.49872-1.33455-1.41535h3.10653v-.27862c0-1.59366-.94728-2.13974-1.83885-2.13974-1.15903 0-1.928.91385-1.928 2.2289 0 1.31505.75783 2.19547 1.99487 2.19547zm-1.33455-2.57438c.0446-.66589.51543-1.25933 1.26768-1.25933.71325 0 1.17018.53493 1.17018 1.25933zM422.903885 111.626561c0-.74668.4625-1.17017 1.09217-1.17017.61016 0 .98071.39841.98071 1.06987v2.67468h.65753v-2.71926c0-1.09216-.5823-1.61595-1.44879-1.61595-.64638 0-1.04758.28975-1.24818.72439h-.0557v-.66867h-.63523v4.27949h.65752zM429.869195 110.879881c-.20617-.60738-.66867-1.01415-1.51565-1.01415-.90271 0-1.57138.51264-1.57138 1.23704 0 .59066.35106.98629 1.13674 1.17017l.71325.16717c.43185.1003.63524.30647.63524.6018 0 .36777-.39006.66867-1.00301.66867-.53772 0-.87484-.23124-.99186-.69096l-.62409.15603c.15324.72718.75225 1.11445 1.6271 1.11445.99465 0 1.67168-.5433 1.67168-1.28162 0-.59623-.37335-.97236-1.13674-1.15903l-.63524-.15602c-.50708-.12538-.73554-.29533-.73554-.6241 0-.36777.39006-.63523.91385-.63523.57394 0 .81076.31762.925.61294zM432.677605 114.290101c1.15903 0 1.93915-.88042 1.93915-2.20662 0-1.33734-.78012-2.21775-1.93915-2.21775s-1.93914.88041-1.93914 2.21775c0 1.3262.78011 2.20662 1.93914 2.20662zm0-.59066c-.88041 0-1.28162-.75783-1.28162-1.61596 0-.85812.40121-1.62709 1.28162-1.62709.88042 0 1.28162.76897 1.28162 1.62709 0 .85813-.4012 1.61596-1.28162 1.61596zM435.619755 114.200941h.65752v-2.70811c0-.57952.45693-1.00301 1.08102-1.00301.17553 0 .35663.0334.4012.0446v-.66867c-.0752-.006-.24796-.0112-.34548-.0112-.51264 0-.95843.28976-1.11445.71325h-.0446v-.64638h-.63523zM440.712785 109.921451h-.95843v-.43464c0-.42349.17831-.64638.61295-.64638.18945 0 .3009.0446.36776.0669l.18946-.56837c-.1003-.0446-.3009-.11145-.62409-.11145-.61295 0-1.20361.36777-1.20361 1.10331v.59066h-.69096v.55722h.69096v3.72227h.65753v-3.72227h.95843zM442.295295 108.494951h-.65753v5.70599h.65753zM445.237435 114.290101c1.15903 0 1.93915-.88042 1.93915-2.20662 0-1.33734-.78012-2.21775-1.93915-2.21775s-1.93914.88041-1.93914 2.21775c0 1.3262.78011 2.20662 1.93914 2.20662zm0-.59066c-.88041 0-1.28162-.75783-1.28162-1.61596 0-.85812.40121-1.62709 1.28162-1.62709.88042 0 1.28162.76897 1.28162 1.62709 0 .85813-.4012 1.61596-1.28162 1.61596zM449.004275 114.200941h.64638l.93614-3.28763h.0669l.93613 3.28763h.64639l1.30391-4.27949h-.69096l-.925 3.26534h-.0446l-.9027-3.26534h-.70211l-.91385 3.27649h-.0446l-.92499-3.27649h-.69096zM454.810545 113.420831h-.71325l-.0334.31204c-.0808.75504-.23961 1.5073-.31205 1.86114h.5015c.13374-.37892.41792-1.23704.51265-1.87228zM460.026165 114.290101c.86927 0 1.50451-.43464 1.70511-1.08102l-.63524-.17831c-.16717.44578-.55444.66867-1.06987.66867-.77176 0-1.30391-.49872-1.33456-1.41535h3.10654v-.27862c0-1.59366-.94729-2.13974-1.83885-2.13974-1.15903 0-1.928.91385-1.928 2.2289 0 1.31505.75783 2.19547 1.99487 2.19547zm-1.33456-2.57438c.0446-.66589.51544-1.25933 1.26769-1.25933.71325 0 1.17018.53493 1.17018 1.25933zM464.662275 109.921451h-.91385v-1.0253h-.65753v1.0253h-.64638v.55722h.64638v2.67469c0 .74668.60181 1.10331 1.15903 1.10331.24518 0 .4012-.0446.49036-.078l-.13373-.59066c-.0557.0112-.14488.0334-.28976.0334-.28976 0-.56837-.0892-.56837-.64638v-2.49638h.91385zM467.348105 114.290101c.94728 0 1.57137-.57952 1.68282-1.33734h-.65753c-.12259.46807-.51264.74668-1.02529.74668-.78012 0-1.28162-.64638-1.28162-1.63824 0-.96958.51265-1.60481 1.28162-1.60481.57951 0 .92499.35662 1.02529.74668h.65753c-.11145-.80241-.79126-1.33734-1.69397-1.33734-1.15903 0-1.928.91385-1.928 2.21775 0 1.28162.73554 2.20662 1.93915 2.20662zM470.468555 114.245521c.27583 0 .5015-.22568.5015-.5015 0-.27583-.22567-.50151-.5015-.50151-.27583 0-.5015.22568-.5015.50151 0 .27582.22567.5015.5015.5015zM473.555585 111.793731c0-1.40421-.37891-2.57439-1.05873-3.56625h-.57951c.53493.73554.95842 2.24005.95842 3.56625 0 1.32619-.42349 2.8307-.95842 3.56624h.57951c.67982-.99186 1.05873-2.16203 1.05873-3.56624z" style="-inkscape-font-specification:inter;text-align:center"/></g><path d="M276.10952 232.76335H155.83708" fill="none" stroke="#929292" stroke-width="2.5763" stroke-linecap="round" stroke-linejoin="bevel" marker-end="url(#e)" transform="translate(89.390305 -42.267089)"/></svg>